<?xml version="1.0" encoding="utf-8"?>
<!-- Generator: Adobe Illustrator 27.5.0, SVG Export Plug-In . SVG Version: 6.00 Build 0)  -->
<svg version="1.1" xmlns="http://www.w3.org/2000/svg" xmlns:xlink="http://www.w3.org/1999/xlink" x="0px" y="0px"
	 viewBox="0 0 500 500" style="enable-background:new 0 0 500 500;" xml:space="preserve">
<g id="BACKGROUND">
	<rect style="fill:#FFFFFF;" width="500" height="500"/>
</g>
<g id="OBJECTS">
	<g>
		
			<ellipse transform="matrix(0.9999 -0.0127 0.0127 0.9999 -1.7554 1.8831)" style="fill-rule:evenodd;clip-rule:evenodd;fill:#253D62;" cx="147.883" cy="139.615" rx="81.74" ry="81.74"/>
		<g>
			<defs>
				<path id="SVGID_1_" d="M147.883,57.875c45.113,0,81.74,36.626,81.74,81.74s-36.794,84.353-81.907,84.353
					c-45.113,0-81.572-39.24-81.572-84.353S102.77,57.875,147.883,57.875z"/>
			</defs>
			<clipPath id="SVGID_00000180338591640851596160000006645499221802587015_">
				<use xlink:href="#SVGID_1_"  style="overflow:visible;"/>
			</clipPath>
			
				<polygon style="clip-path:url(#SVGID_00000180338591640851596160000006645499221802587015_);fill-rule:evenodd;clip-rule:evenodd;fill:#FFFFFF;" points="
				195.346,160.04 147.777,143.728 100.661,160.04 100.661,228.604 195.346,228.604 			"/>
			
				<path style="clip-path:url(#SVGID_00000180338591640851596160000006645499221802587015_);fill-rule:evenodd;clip-rule:evenodd;fill:#253D62;" d="
				M159.714,197.758c0-6.2-5.033-11.234-11.233-11.234c-6.199,0-11.234,5.033-11.234,11.234v33.774
				c0,6.199,5.034,11.232,11.234,11.232c6.2,0,11.233-5.033,11.233-11.232V197.758z"/>
		</g>
		<polygon style="fill-rule:evenodd;clip-rule:evenodd;fill:#FFFFFF;" points="147.948,96.908 125.182,109.129 125.383,148.24 
			147.772,141.553 170.525,147.891 170.552,109.096 		"/>
		<polygon style="fill-rule:evenodd;clip-rule:evenodd;fill:#FFFFFF;" points="141.466,79.012 146.151,79.012 146.156,72.569 
			149.611,72.569 149.594,79.012 154.3,79.012 154.3,82.467 149.584,82.467 149.55,94.948 147.871,94.028 146.139,94.944 
			146.149,82.467 141.466,82.467 		"/>
		<path style="fill-rule:evenodd;clip-rule:evenodd;fill:#253D62;" d="M111.981,184.554v-8.373c0-2.951,2.397-5.348,5.348-5.348
			c2.951,0,5.348,2.397,5.348,5.348v8.373H111.981z"/>
		<path style="fill-rule:evenodd;clip-rule:evenodd;fill:#253D62;" d="M142.654,127.804v-8.372c0-2.951,2.396-5.348,5.348-5.348
			c2.951,0,5.348,2.397,5.348,5.348v8.372H142.654z"/>
		<path style="fill-rule:evenodd;clip-rule:evenodd;fill:#253D62;" d="M173.882,184.554v-8.373c0-2.951,2.396-5.348,5.348-5.348
			c2.951,0,5.348,2.397,5.348,5.348v8.373H173.882z"/>
	</g>
	<g>
		
			<rect x="297.81" y="322.146" transform="matrix(0.7071 -0.7071 0.7071 0.7071 -166.9825 368.7161)" style="fill-rule:evenodd;clip-rule:evenodd;fill:#253D62;" width="127.553" height="127.553"/>
		<g>
			<defs>
				<polygon id="SVGID_00000083787699396058130610000002404582355510526855_" points="362.257,477.791 271.392,385.923 
					361.586,295.729 451.78,385.923 				"/>
			</defs>
			<clipPath id="SVGID_00000018938648126780380040000013607308737268666281_">
				<use xlink:href="#SVGID_00000083787699396058130610000002404582355510526855_"  style="overflow:visible;"/>
			</clipPath>
			
				<polygon style="clip-path:url(#SVGID_00000018938648126780380040000013607308737268666281_);fill-rule:evenodd;clip-rule:evenodd;fill:#FFFFFF;" points="
				361.713,534.352 254.807,471.4 361.713,408.448 468.618,471.4 			"/>
			
				<polygon style="clip-path:url(#SVGID_00000018938648126780380040000013607308737268666281_);fill-rule:evenodd;clip-rule:evenodd;fill:#FFFFFF;" points="
				353.799,345.212 359.927,344.759 359.927,337.114 363.294,337.114 363.294,344.759 369.395,345.287 369.333,348.296 
				363.294,348.126 363.294,363.774 361.629,363.704 359.927,363.774 359.927,348.126 353.812,348.183 			"/>
			
				<polygon style="clip-path:url(#SVGID_00000018938648126780380040000013607308737268666281_);fill-rule:evenodd;clip-rule:evenodd;fill:#FFFFFF;" points="
				289.399,443.373 361.718,400.78 434.027,443.372 361.737,393.667 			"/>
			
				<polygon style="clip-path:url(#SVGID_00000018938648126780380040000013607308737268666281_);fill-rule:evenodd;clip-rule:evenodd;fill:#FFFFFF;" points="
				297.888,425.074 361.611,387.544 425.323,425.073 361.627,381.277 			"/>
			
				<polygon style="clip-path:url(#SVGID_00000018938648126780380040000013607308737268666281_);fill-rule:evenodd;clip-rule:evenodd;fill:#FFFFFF;" points="
				298.181,412.662 361.568,375.329 424.948,412.66 361.585,369.095 			"/>
		</g>
	</g>
	<g>
		<g>
			<path style="fill-rule:evenodd;clip-rule:evenodd;fill:#253D62;" d="M296.428,213.084c3.652-32.559,31.456-57.893,65.165-57.893
				c33.71,0,61.514,25.335,65.166,57.893c-16.399-7.543-39.54-12.239-65.166-12.239
				C335.968,200.846,312.827,205.541,296.428,213.084z"/>
			<rect x="354.529" y="51.952" style="fill-rule:evenodd;clip-rule:evenodd;fill:#FFFFFF;" width="14.129" height="155.836"/>
			<path style="fill-rule:evenodd;clip-rule:evenodd;fill:#253D62;" d="M356.75,58.692l1.87,45.089l-39.398-1.87v9.771l39.398-1.87
				l-1.87,89.233h9.772l-1.87-89.233l38.908,1.87v-9.771l-38.908,1.87l1.87-45.089H356.75z M366.522,101.911h37.038v9.771h-37.038
				v87.363h-9.772v-87.363h-37.528v-9.771h37.528V58.692h9.772V101.911z"/>
			<polygon style="fill-rule:evenodd;clip-rule:evenodd;fill:#253D62;" points="368.681,153.943 368.605,113.585 403.468,113.462 
				370.91,115.811 			"/>
			<polygon style="fill-rule:evenodd;clip-rule:evenodd;fill:#253D62;" points="368.681,59.575 368.605,99.933 403.468,100.056 
				370.91,97.708 			"/>
			<polygon style="fill-rule:evenodd;clip-rule:evenodd;fill:#253D62;" points="354.518,153.943 354.594,113.585 319.731,113.462 
				352.289,115.811 			"/>
			<polygon style="fill-rule:evenodd;clip-rule:evenodd;fill:#253D62;" points="354.518,59.575 354.594,99.933 319.731,100.056 
				352.289,97.708 			"/>
			<path style="fill-rule:evenodd;clip-rule:evenodd;fill:#253D62;" d="M424.798,212.113c0,0,5.725,2.786,10.849,7.164
				c0,0-4.889-5.225-10.29-8.723"/>
			<path style="fill-rule:evenodd;clip-rule:evenodd;fill:#253D62;" d="M298.376,212.069c0,0-5.726,2.786-10.85,7.164
				c0,0,4.889-5.225,10.291-8.723"/>
		</g>
		
			<text transform="matrix(1 0 0 1 298.0186 238.8089)" style="fill:#253D62; font-family:'GreatVibes-Regular'; font-size:29.4846px;">My Church</text>
	</g>
	<g>
		<g style="opacity:0.99;">
			<polygon style="fill-rule:evenodd;clip-rule:evenodd;fill:#253D62;" points="121.928,403.138 122.06,403.138 122.192,403.139 
				122.324,403.141 122.457,403.143 122.589,403.145 122.721,403.148 122.853,403.151 122.986,403.155 123.117,403.159 
				123.25,403.164 123.382,403.169 123.515,403.174 123.646,403.18 123.779,403.187 123.912,403.194 124.044,403.201 
				124.176,403.209 124.308,403.217 124.441,403.227 124.572,403.236 124.705,403.246 124.837,403.256 124.97,403.266 
				125.101,403.278 125.234,403.289 125.366,403.302 125.499,403.315 125.547,403.32 125.63,403.329 125.762,403.343 
				125.895,403.359 126.026,403.376 126.158,403.392 126.291,403.409 126.423,403.426 126.554,403.444 126.687,403.463 
				126.819,403.482 126.951,403.501 127.082,403.522 127.214,403.543 127.346,403.564 127.478,403.585 127.61,403.608 
				127.742,403.63 127.874,403.653 128.005,403.677 128.137,403.702 128.269,403.726 128.4,403.751 128.532,403.778 
				128.664,403.804 128.796,403.832 128.927,403.859 129.058,403.887 129.19,403.916 129.322,403.945 129.453,403.975 
				129.585,404.006 129.716,404.036 129.847,404.068 129.979,404.1 130.11,404.133 130.242,404.166 130.373,404.199 
				130.504,404.234 130.636,404.269 130.766,404.305 130.898,404.341 131.005,404.371 131.111,404.401 131.217,404.431 
				131.324,404.463 131.43,404.494 131.517,404.521 131.535,404.526 131.642,404.559 131.747,404.592 131.853,404.626 
				131.957,404.66 132.062,404.695 132.168,404.73 132.272,404.765 132.376,404.8 132.481,404.837 132.585,404.873 132.689,404.91 
				132.794,404.946 132.897,404.984 133.002,405.022 133.105,405.06 133.208,405.098 133.312,405.137 133.415,405.176 
				133.518,405.215 133.622,405.255 133.826,405.335 134.031,405.416 134.236,405.499 134.439,405.583 134.643,405.669 
				134.846,405.756 135.047,405.843 135.249,405.932 135.45,406.022 135.65,406.113 135.85,406.206 136.049,406.299 
				136.248,406.393 136.447,406.488 136.644,406.586 136.841,406.683 137.037,406.781 137.234,406.88 137.429,406.981 
				137.624,407.083 137.818,407.185 138.012,407.288 138.206,407.392 138.398,407.497 138.591,407.603 138.782,407.71 
				138.973,407.818 139.163,407.926 139.354,408.035 139.543,408.145 139.731,408.255 139.92,408.367 140.107,408.479 
				140.188,408.527 140.295,408.592 140.48,408.706 140.667,408.821 140.851,408.936 141.036,409.053 141.22,409.169 
				141.403,409.286 141.587,409.403 141.769,409.522 141.951,409.64 142.132,409.759 142.312,409.879 142.493,409.998 
				142.673,410.119 142.851,410.239 143.031,410.36 143.208,410.481 143.385,410.603 143.409,410.699 143.311,410.716 
				143.129,410.603 142.947,410.49 142.763,410.377 142.579,410.266 142.394,410.155 142.209,410.045 142.022,409.935 
				141.836,409.827 141.649,409.72 141.46,409.612 141.272,409.507 141.082,409.401 140.892,409.298 140.701,409.195 
				140.511,409.092 140.318,408.991 140.127,408.891 140.016,408.834 139.933,408.791 139.741,408.692 139.547,408.594 
				139.353,408.497 139.158,408.401 138.964,408.306 138.768,408.213 138.571,408.12 138.375,408.028 138.177,407.937 
				137.98,407.848 137.782,407.76 137.583,407.673 137.385,407.588 137.185,407.503 136.985,407.419 136.785,407.337 
				136.584,407.257 136.383,407.177 136.181,407.099 135.979,407.022 135.777,406.947 135.574,406.873 135.372,406.8 
				135.168,406.729 134.964,406.659 134.761,406.592 134.556,406.525 134.351,406.46 134.146,406.396 133.941,406.333 
				133.735,406.272 133.528,406.214 133.323,406.156 133.219,406.129 133.116,406.1 133.013,406.073 132.909,406.047 
				132.806,406.02 132.703,405.994 132.599,405.967 132.495,405.942 132.392,405.918 132.288,405.893 132.184,405.869 
				132.081,405.846 131.976,405.823 131.873,405.8 131.768,405.778 131.664,405.756 131.561,405.734 131.456,405.713 
				131.352,405.693 131.248,405.673 131.229,405.67 131.143,405.652 131.04,405.632 130.936,405.613 130.831,405.594 
				130.727,405.575 130.622,405.557 130.494,405.535 130.365,405.513 130.238,405.492 130.109,405.473 129.98,405.453 
				129.852,405.435 129.724,405.416 129.596,405.398 129.467,405.382 129.34,405.366 129.212,405.349 129.083,405.334 
				128.956,405.32 128.828,405.306 128.7,405.293 128.573,405.28 128.446,405.268 128.318,405.256 128.191,405.245 128.064,405.235 
				127.936,405.226 127.81,405.217 127.682,405.207 127.555,405.199 127.429,405.192 127.301,405.185 127.174,405.179 
				127.048,405.173 126.921,405.168 126.794,405.163 126.669,405.159 126.542,405.156 126.416,405.153 126.29,405.151 
				126.163,405.149 126.038,405.147 125.911,405.147 125.785,405.146 125.66,405.147 125.533,405.147 125.454,405.148 
				125.407,405.148 125.282,405.149 125.156,405.15 125.031,405.151 124.906,405.153 124.78,405.156 124.655,405.159 
				124.53,405.163 124.404,405.167 124.28,405.171 124.154,405.176 124.029,405.181 123.904,405.187 123.779,405.194 
				123.654,405.201 123.53,405.208 123.405,405.217 123.281,405.225 123.156,405.234 123.031,405.243 122.907,405.253 
				122.782,405.263 122.657,405.274 122.534,405.285 122.409,405.297 122.285,405.309 122.161,405.321 122.036,405.334 
				121.913,405.347 121.789,405.362 121.664,405.376 121.541,405.391 121.417,405.406 121.294,405.421 121.169,405.438 
				121.045,405.454 120.922,405.471 120.798,405.488 120.676,405.505 120.552,405.524 120.428,405.543 120.305,405.561 
				120.182,405.58 120.058,405.601 119.935,405.621 119.812,405.641 119.689,405.663 119.566,405.684 119.443,405.705 
				119.395,405.714 119.321,405.726 119.074,405.768 118.827,405.81 118.581,405.854 118.336,405.9 118.09,405.947 117.845,405.996 
				117.599,406.046 117.354,406.096 117.109,406.149 116.864,406.203 116.619,406.258 116.374,406.315 116.13,406.373 
				115.885,406.431 115.641,406.492 115.397,406.553 115.152,406.616 114.909,406.68 114.665,406.745 114.422,406.81 
				114.178,406.878 113.935,406.946 113.691,407.016 113.488,407.075 113.448,407.086 113.204,407.152 112.96,407.22 
				112.716,407.289 112.472,407.359 112.228,407.43 111.984,407.5 111.74,407.573 111.497,407.646 111.253,407.72 111.01,407.795 
				110.766,407.871 110.685,407.897 110.522,407.945 110.278,408.018 110.033,408.092 109.789,408.166 109.544,408.241 
				109.3,408.317 109.056,408.394 108.812,408.471 108.567,408.549 108.323,408.627 108.079,408.707 108.022,408.725 
				107.834,408.782 107.588,408.856 107.343,408.931 107.097,409.007 106.851,409.083 106.606,409.159 106.36,409.236 
				106.115,409.313 105.87,409.391 105.378,409.547 104.888,409.705 104.397,409.864 103.907,410.024 103.417,410.186 
				102.927,410.348 102.467,410.5 102.438,410.509 101.946,410.663 100.962,410.97 99.98,411.277 99.489,411.431 98.999,411.583 
				98.793,411.647 98.586,411.711 98.379,411.773 98.172,411.835 97.965,411.898 97.758,411.959 97.551,412.02 97.344,412.08 
				97.136,412.14 96.929,412.2 96.721,412.259 96.514,412.316 96.306,412.375 96.209,412.401 96.098,412.431 95.89,412.486 
				95.681,412.539 95.473,412.594 95.264,412.647 95.056,412.699 94.847,412.752 94.638,412.804 94.43,412.855 94.221,412.907 
				94.012,412.958 93.803,413.007 93.594,413.058 93.385,413.107 93.176,413.156 92.967,413.205 92.758,413.254 92.548,413.301 
				92.339,413.349 92.13,413.397 91.92,413.443 91.502,413.535 91.083,413.626 90.664,413.717 90.245,413.805 89.825,413.892 
				89.454,413.968 89.405,413.978 88.985,414.059 88.564,414.14 88.144,414.219 87.723,414.297 87.302,414.374 86.881,414.451 
				86.46,414.526 86.039,414.6 85.618,414.674 85.36,414.719 85.102,414.762 84.845,414.806 84.588,414.849 84.331,414.892 
				84.074,414.935 83.818,414.976 83.562,415.018 83.306,415.059 83.05,415.1 82.794,415.139 82.538,415.179 82.537,415.18 
				82.283,415.216 82.027,415.254 81.771,415.29 81.516,415.326 81.261,415.361 81.006,415.397 80.751,415.431 80.496,415.466 
				80.241,415.499 79.986,415.532 79.731,415.565 79.477,415.596 79.222,415.629 78.967,415.659 78.713,415.69 78.458,415.72 
				78.203,415.749 77.949,415.779 77.694,415.807 77.439,415.834 77.185,415.862 76.93,415.889 76.675,415.915 76.42,415.941 
				76.165,415.966 75.91,415.99 75.655,416.015 75.399,416.038 75.144,416.06 74.888,416.083 74.632,416.105 74.376,416.125 
				74.12,416.146 73.864,416.166 73.607,416.185 73.351,416.204 73.094,416.222 72.837,416.24 72.579,416.256 72.322,416.272 
				72.064,416.288 71.806,416.302 71.547,416.318 71.289,416.331 71.03,416.344 70.77,416.356 70.511,416.368 70.251,416.379 
				69.99,416.39 69.73,416.4 69.469,416.409 69.208,416.417 69.207,416.417 69.124,416.419 69.041,416.421 68.957,416.422 
				68.873,416.423 68.789,416.424 68.705,416.424 68.621,416.424 68.537,416.423 68.453,416.422 68.368,416.421 68.284,416.419 
				68.199,416.417 68.114,416.415 68.029,416.412 67.944,416.408 67.859,416.405 67.774,416.401 67.689,416.396 67.604,416.392 
				67.518,416.385 67.433,416.38 67.347,416.374 67.262,416.367 67.176,416.361 67.09,416.353 67.005,416.346 66.919,416.338 
				66.833,416.33 66.747,416.321 66.661,416.312 66.576,416.301 66.49,416.291 66.404,416.281 66.318,416.27 66.232,416.259 
				66.146,416.248 66.06,416.236 65.975,416.222 65.889,416.21 65.803,416.197 65.717,416.183 65.632,416.169 65.546,416.155 
				65.46,416.139 65.374,416.124 65.289,416.108 65.203,416.092 65.118,416.076 65.033,416.058 64.947,416.041 64.862,416.023 
				64.777,416.005 64.692,415.986 64.607,415.967 64.522,415.948 64.437,415.928 64.353,415.907 64.268,415.887 64.184,415.866 
				64.099,415.844 64.015,415.822 63.931,415.799 63.847,415.777 63.763,415.753 63.68,415.729 63.596,415.706 63.513,415.68 
				63.43,415.656 63.347,415.631 63.264,415.604 63.181,415.578 63.098,415.552 63.016,415.524 62.934,415.497 62.852,415.469 
				62.77,415.44 62.689,415.411 62.607,415.382 62.526,415.352 62.445,415.322 62.364,415.291 62.284,415.261 62.203,415.228 
				62.123,415.197 62.044,415.165 61.964,415.132 61.885,415.099 61.806,415.064 61.727,415.031 61.648,414.996 61.57,414.961 
				61.492,414.926 61.414,414.89 61.337,414.853 61.26,414.816 61.183,414.78 61.106,414.741 61.03,414.704 60.954,414.665 
				60.878,414.626 60.803,414.586 60.728,414.546 60.653,414.506 60.579,414.465 60.504,414.423 60.431,414.381 60.357,414.339 
				60.284,414.296 60.212,414.254 60.139,414.21 60.067,414.165 59.996,414.121 59.925,414.076 59.854,414.031 59.783,413.985 
				59.713,413.939 59.643,413.891 59.574,413.844 59.505,413.797 59.437,413.748 59.369,413.699 59.301,413.65 59.234,413.6 
				59.167,413.551 59.15,413.537 59.1,413.5 59.035,413.448 58.969,413.397 58.904,413.345 58.888,413.221 59.012,413.206 
				59.078,413.256 59.144,413.304 59.21,413.352 59.26,413.387 59.277,413.4 59.344,413.446 59.412,413.493 59.48,413.539 
				59.549,413.585 59.617,413.629 59.687,413.674 59.756,413.719 59.826,413.762 59.897,413.805 59.967,413.847 60.039,413.89 
				60.11,413.931 60.182,413.972 60.254,414.014 60.326,414.053 60.399,414.093 60.472,414.132 60.546,414.171 60.62,414.209 
				60.694,414.247 60.768,414.284 60.843,414.321 60.918,414.357 60.993,414.392 61.069,414.428 61.145,414.462 61.221,414.497 
				61.298,414.531 61.374,414.565 61.451,414.597 61.529,414.63 61.606,414.662 61.684,414.693 61.762,414.725 61.84,414.755 
				61.919,414.785 61.998,414.815 62.077,414.843 62.156,414.873 62.235,414.901 62.315,414.928 62.395,414.956 62.475,414.982 
				62.555,415.009 62.635,415.035 62.716,415.06 62.797,415.086 62.878,415.11 62.959,415.134 63.04,415.158 63.122,415.181 
				63.203,415.203 63.285,415.225 63.367,415.248 63.449,415.269 63.531,415.29 63.613,415.31 63.696,415.331 63.778,415.35 
				63.861,415.369 63.944,415.388 64.027,415.406 64.11,415.424 64.193,415.441 64.276,415.458 64.36,415.475 64.443,415.491 
				64.526,415.506 64.61,415.521 64.693,415.536 64.777,415.551 64.861,415.565 64.944,415.578 65.028,415.591 65.112,415.603 
				65.196,415.616 65.28,415.628 65.364,415.639 65.448,415.649 65.532,415.66 65.616,415.67 65.7,415.679 65.784,415.688 
				65.868,415.698 65.952,415.706 66.036,415.714 66.12,415.721 66.204,415.728 66.288,415.735 66.371,415.741 66.455,415.747 
				66.539,415.752 66.623,415.757 66.706,415.762 66.79,415.767 66.873,415.77 66.957,415.774 67.04,415.777 67.124,415.779 
				67.207,415.781 67.29,415.783 67.373,415.784 67.456,415.785 67.539,415.786 67.622,415.786 67.704,415.786 67.787,415.785 
				67.869,415.784 67.951,415.783 68.034,415.781 68.115,415.779 68.197,415.776 68.279,415.772 68.36,415.77 68.442,415.765 
				68.523,415.761 68.604,415.757 68.685,415.752 68.765,415.747 68.846,415.741 68.926,415.735 69.006,415.729 69.086,415.722 
				69.166,415.715 69.424,415.691 69.682,415.667 69.939,415.642 70.196,415.616 70.453,415.59 70.709,415.563 70.965,415.534 
				71.22,415.506 71.475,415.477 71.73,415.446 71.984,415.415 72.238,415.384 72.491,415.35 72.745,415.317 72.997,415.283 
				73.25,415.248 73.502,415.212 73.754,415.176 74.006,415.139 74.257,415.101 74.508,415.062 74.759,415.024 75.01,414.983 
				75.26,414.943 75.51,414.901 75.76,414.86 76.01,414.816 76.26,414.772 76.509,414.729 76.758,414.683 77.007,414.638 
				77.256,414.592 77.505,414.546 77.754,414.498 78.002,414.449 78.251,414.401 78.499,414.351 78.747,414.3 78.996,414.25 
				79.244,414.198 79.492,414.145 79.74,414.093 79.988,414.039 80.236,413.985 80.484,413.93 80.732,413.875 80.98,413.818 
				81.228,413.761 81.476,413.704 81.724,413.646 81.972,413.588 82.218,413.529 82.469,413.47 82.717,413.412 82.966,413.352 
				83.215,413.292 83.464,413.231 83.714,413.171 83.963,413.109 84.212,413.047 84.462,412.984 84.712,412.92 84.962,412.856 
				85.212,412.793 85.622,412.686 86.031,412.579 86.439,412.47 86.847,412.36 87.255,412.25 87.662,412.137 88.068,412.024 
				88.474,411.909 88.879,411.793 88.925,411.779 89.284,411.678 89.689,411.563 90.093,411.446 90.497,411.328 90.9,411.208 
				91.303,411.086 91.503,411.026 91.704,410.964 91.905,410.902 92.105,410.839 92.306,410.776 92.506,410.713 92.706,410.65 
				92.906,410.586 93.105,410.522 93.305,410.457 93.504,410.392 93.703,410.326 93.902,410.26 94.101,410.194 94.299,410.127 
				94.498,410.06 94.696,409.992 94.894,409.924 95.092,409.855 95.289,409.786 95.395,409.749 95.487,409.717 95.685,409.65 
				95.883,409.582 96.081,409.514 96.278,409.445 96.475,409.375 96.673,409.305 96.869,409.235 97.066,409.164 97.263,409.092 
				97.459,409.02 97.655,408.948 97.851,408.875 98.047,408.802 98.524,408.623 99.002,408.443 99.962,408.079 100.927,407.712 
				101.411,407.529 101.439,407.519 101.899,407.355 102.388,407.18 102.879,407.006 103.371,406.833 103.864,406.66 
				104.358,406.488 104.853,406.318 105.102,406.233 105.35,406.148 105.599,406.064 105.848,405.98 106.098,405.897 
				106.347,405.812 106.597,405.73 106.848,405.648 107.039,405.586 107.099,405.567 107.351,405.492 107.604,405.417 
				107.857,405.342 108.111,405.268 108.364,405.195 108.618,405.122 108.873,405.051 109.127,404.978 109.382,404.909 
				109.637,404.838 109.807,404.792 109.893,404.77 110.15,404.706 110.407,404.642 110.664,404.579 110.921,404.517 
				111.179,404.457 111.437,404.396 111.695,404.337 111.954,404.278 112.212,404.221 112.471,404.164 112.73,404.108 
				112.772,404.1 112.99,404.057 113.251,404.009 113.511,403.961 113.772,403.914 114.033,403.868 114.294,403.823 114.556,403.78 
				114.817,403.737 115.078,403.696 115.341,403.655 115.602,403.617 115.865,403.578 116.127,403.542 116.39,403.506 
				116.652,403.472 116.914,403.439 117.177,403.408 117.44,403.378 117.703,403.349 117.966,403.322 118.23,403.296 
				118.493,403.271 118.756,403.249 119.019,403.227 119.099,403.221 119.152,403.217 119.283,403.209 119.416,403.202 
				119.548,403.195 119.681,403.189 119.812,403.183 119.944,403.177 120.077,403.171 120.208,403.166 120.341,403.162 
				120.473,403.158 120.606,403.154 120.737,403.15 120.87,403.147 121.002,403.145 121.135,403.143 121.266,403.141 
				121.399,403.138 121.531,403.138 121.663,403.138 121.795,403.138 			"/>
			<polygon style="fill-rule:evenodd;clip-rule:evenodd;fill:#253D62;" points="174.104,403.138 174.236,403.138 174.368,403.138 
				174.501,403.141 174.632,403.143 174.765,403.145 174.897,403.147 175.03,403.15 175.161,403.154 175.294,403.158 
				175.426,403.162 175.557,403.166 175.69,403.171 175.822,403.177 175.955,403.183 176.086,403.189 176.219,403.195 
				176.351,403.202 176.483,403.209 176.615,403.217 176.667,403.221 176.748,403.227 177.01,403.249 177.274,403.271 
				177.537,403.296 177.801,403.322 178.063,403.349 178.327,403.378 178.589,403.408 178.852,403.439 179.115,403.472 
				179.377,403.506 179.64,403.542 179.902,403.578 180.164,403.617 180.426,403.655 180.688,403.696 180.949,403.737 
				181.21,403.78 181.472,403.823 181.733,403.868 181.995,403.914 182.255,403.961 182.516,404.009 182.777,404.057 182.995,404.1 
				183.036,404.108 183.296,404.164 183.555,404.221 183.813,404.278 184.072,404.337 184.33,404.396 184.587,404.457 
				184.845,404.517 185.103,404.579 185.359,404.642 185.617,404.706 185.874,404.77 185.959,404.792 186.13,404.838 
				186.385,404.909 186.639,404.978 186.894,405.051 187.148,405.122 187.402,405.195 187.655,405.268 187.909,405.342 
				188.162,405.417 188.415,405.492 188.668,405.567 188.727,405.586 188.919,405.648 189.169,405.73 189.42,405.812 
				189.669,405.897 189.918,405.98 190.167,406.064 190.417,406.148 190.665,406.233 190.913,406.318 191.409,406.488 
				191.902,406.66 192.395,406.833 192.888,407.006 193.378,407.18 193.868,407.355 194.328,407.519 194.356,407.529 
				194.84,407.712 195.804,408.079 196.764,408.443 197.243,408.623 197.719,408.802 197.916,408.875 198.111,408.948 
				198.308,409.02 198.504,409.092 198.701,409.164 198.897,409.235 199.094,409.305 199.291,409.375 199.488,409.445 
				199.686,409.514 199.883,409.582 200.082,409.65 200.279,409.717 200.372,409.749 200.477,409.786 200.675,409.855 
				200.873,409.924 201.071,409.992 201.269,410.06 201.467,410.127 201.665,410.194 201.865,410.26 202.064,410.326 
				202.262,410.392 202.462,410.457 202.661,410.522 202.861,410.586 203.061,410.65 203.261,410.713 203.461,410.776 
				203.662,410.839 203.862,410.902 204.063,410.964 204.263,411.026 204.464,411.086 204.866,411.208 205.27,411.328 
				205.673,411.446 206.077,411.563 206.482,411.678 206.841,411.779 206.888,411.793 207.293,411.909 207.698,412.024 
				208.105,412.137 208.512,412.25 208.919,412.36 209.328,412.47 209.736,412.579 210.144,412.686 210.555,412.793 
				210.805,412.856 211.054,412.92 211.304,412.984 211.554,413.047 211.804,413.109 212.053,413.171 212.302,413.231 
				212.552,413.292 212.8,413.352 213.049,413.412 213.298,413.47 213.547,413.528 213.548,413.529 213.795,413.588 
				214.043,413.646 214.291,413.704 214.539,413.761 214.787,413.818 215.035,413.875 215.283,413.93 215.531,413.985 
				215.779,414.039 216.027,414.093 216.275,414.145 216.523,414.198 216.771,414.25 217.019,414.3 217.267,414.351 
				217.516,414.401 217.764,414.449 218.013,414.498 218.261,414.546 218.511,414.592 218.759,414.638 219.008,414.683 
				219.257,414.729 219.507,414.772 219.757,414.816 220.006,414.86 220.256,414.901 220.507,414.943 220.757,414.983 
				221.007,415.024 221.258,415.062 221.51,415.101 221.761,415.139 222.012,415.176 222.265,415.212 222.517,415.248 
				222.769,415.283 223.022,415.317 223.275,415.35 223.529,415.384 223.782,415.415 224.037,415.446 224.291,415.477 
				224.546,415.506 224.802,415.534 225.057,415.563 225.313,415.59 225.571,415.616 225.827,415.642 226.084,415.667 
				226.343,415.691 226.6,415.715 226.601,415.715 226.68,415.722 226.76,415.729 226.84,415.735 226.92,415.741 227.001,415.747 
				227.081,415.752 227.163,415.757 227.244,415.761 227.325,415.765 227.407,415.77 227.488,415.772 227.57,415.776 
				227.651,415.779 227.733,415.781 227.815,415.783 227.897,415.784 227.98,415.785 228.062,415.786 228.145,415.786 
				228.227,415.786 228.311,415.785 228.394,415.784 228.477,415.783 228.56,415.781 228.643,415.779 228.726,415.777 
				228.81,415.774 228.893,415.77 228.976,415.767 229.06,415.762 229.143,415.757 229.228,415.752 229.312,415.747 
				229.396,415.741 229.479,415.735 229.563,415.728 229.647,415.721 229.731,415.714 229.815,415.706 229.899,415.698 
				229.982,415.688 230.066,415.679 230.151,415.67 230.235,415.66 230.319,415.649 230.403,415.639 230.487,415.628 
				230.57,415.616 230.654,415.603 230.738,415.591 230.822,415.578 230.905,415.565 230.99,415.551 231.074,415.536 
				231.157,415.521 231.24,415.506 231.324,415.491 231.407,415.475 231.49,415.458 231.573,415.441 231.656,415.424 
				231.739,415.406 231.822,415.388 231.905,415.369 231.989,415.35 232.071,415.331 232.153,415.31 232.236,415.29 
				232.318,415.269 232.4,415.248 232.482,415.225 232.563,415.203 232.645,415.181 232.726,415.158 232.807,415.134 
				232.889,415.11 232.969,415.086 233.05,415.06 233.132,415.035 233.212,415.009 233.292,414.982 233.372,414.956 
				233.452,414.928 233.532,414.901 233.611,414.873 233.69,414.843 233.769,414.815 233.848,414.785 233.926,414.755 
				234.005,414.725 234.083,414.693 234.16,414.662 234.238,414.63 234.315,414.597 234.392,414.565 234.469,414.531 
				234.545,414.497 234.622,414.462 234.697,414.428 234.773,414.392 234.848,414.357 234.924,414.321 234.998,414.284 
				235.073,414.247 235.147,414.209 235.221,414.171 235.294,414.132 235.368,414.093 235.44,414.053 235.513,414.014 
				235.585,413.972 235.656,413.931 235.729,413.89 235.799,413.847 235.87,413.805 235.94,413.762 236.01,413.719 236.08,413.674 
				236.149,413.629 236.218,413.585 236.287,413.539 236.355,413.493 236.422,413.446 236.489,413.4 236.556,413.352 
				236.623,413.304 236.689,413.256 236.755,413.206 236.878,413.221 236.862,413.345 236.797,413.397 236.732,413.448 
				236.666,413.5 236.617,413.537 236.6,413.551 236.533,413.6 236.466,413.65 236.398,413.699 236.33,413.748 236.261,413.797 
				236.192,413.844 236.124,413.891 236.054,413.939 235.984,413.985 235.913,414.031 235.842,414.076 235.771,414.121 
				235.699,414.165 235.627,414.21 235.555,414.254 235.482,414.296 235.409,414.339 235.335,414.381 235.262,414.423 
				235.188,414.465 235.113,414.506 235.038,414.546 234.963,414.586 234.888,414.626 234.813,414.665 234.736,414.704 
				234.66,414.741 234.583,414.78 234.507,414.816 234.429,414.853 234.352,414.89 234.274,414.926 234.196,414.961 
				234.118,414.996 234.039,415.031 233.961,415.064 233.882,415.099 233.802,415.132 233.723,415.165 233.643,415.197 
				233.563,415.228 233.483,415.261 233.402,415.291 233.322,415.322 233.241,415.352 233.16,415.382 233.078,415.411 
				232.997,415.44 232.915,415.469 232.833,415.497 232.751,415.524 232.668,415.552 232.585,415.578 232.503,415.604 
				232.42,415.631 232.337,415.656 232.254,415.68 232.17,415.706 232.087,415.729 232.003,415.753 231.92,415.777 231.836,415.799 
				231.751,415.822 231.667,415.844 231.583,415.866 231.498,415.887 231.414,415.907 231.329,415.928 231.245,415.948 
				231.16,415.967 231.075,415.986 230.99,416.005 230.904,416.023 230.819,416.041 230.734,416.058 230.648,416.076 
				230.563,416.092 230.478,416.108 230.392,416.124 230.307,416.139 230.22,416.155 230.135,416.169 230.049,416.183 
				229.963,416.197 229.878,416.21 229.792,416.222 229.706,416.236 229.621,416.248 229.535,416.259 229.448,416.27 
				229.362,416.281 229.277,416.291 229.191,416.301 229.105,416.312 229.02,416.321 228.934,416.33 228.848,416.338 
				228.762,416.346 228.676,416.353 228.59,416.361 228.505,416.367 228.419,416.374 228.334,416.38 228.249,416.385 
				228.163,416.392 228.077,416.396 227.992,416.401 227.907,416.405 227.822,416.408 227.737,416.412 227.652,416.415 
				227.568,416.417 227.483,416.419 227.399,416.421 227.314,416.422 227.229,416.423 227.145,416.424 227.061,416.424 
				226.977,416.424 226.893,416.423 226.81,416.422 226.726,416.421 226.643,416.419 226.56,416.417 226.559,416.417 
				226.298,416.409 226.037,416.4 225.776,416.39 225.516,416.379 225.256,416.368 224.996,416.356 224.737,416.344 
				224.479,416.331 224.219,416.318 223.961,416.302 223.702,416.288 223.445,416.272 223.188,416.256 222.93,416.24 
				222.673,416.222 222.416,416.204 222.159,416.185 221.903,416.166 221.646,416.146 221.39,416.125 221.135,416.105 
				220.878,416.083 220.623,416.06 220.368,416.038 220.112,416.015 219.857,415.99 219.602,415.966 219.346,415.941 
				219.091,415.915 218.837,415.889 218.581,415.862 218.327,415.834 218.073,415.807 217.817,415.779 217.563,415.749 
				217.309,415.72 217.053,415.69 216.799,415.659 216.545,415.629 216.29,415.596 216.035,415.565 215.781,415.532 
				215.526,415.499 215.271,415.466 215.016,415.431 214.761,415.397 214.505,415.361 214.251,415.326 213.995,415.29 
				213.739,415.254 213.484,415.216 213.23,415.18 213.229,415.179 212.972,415.139 212.717,415.1 212.462,415.059 212.205,415.018 
				211.949,414.976 211.692,414.935 211.436,414.892 211.179,414.849 210.921,414.806 210.664,414.762 210.407,414.719 
				210.148,414.674 209.728,414.6 209.306,414.526 208.886,414.451 208.464,414.374 208.044,414.297 207.622,414.219 
				207.202,414.14 206.781,414.059 206.361,413.978 206.313,413.968 205.941,413.892 205.522,413.805 205.102,413.717 
				204.684,413.626 204.264,413.535 203.847,413.443 203.636,413.397 203.428,413.349 203.218,413.301 203.009,413.254 
				202.8,413.205 202.591,413.156 202.382,413.107 202.173,413.058 201.963,413.007 201.755,412.958 201.546,412.907 
				201.337,412.855 201.128,412.804 200.92,412.752 200.711,412.699 200.502,412.647 200.294,412.594 200.085,412.539 
				199.877,412.486 199.668,412.431 199.557,412.401 199.46,412.375 199.253,412.316 199.045,412.259 198.838,412.2 198.63,412.14 
				198.423,412.08 198.215,412.02 198.009,411.959 197.802,411.898 197.594,411.835 197.388,411.773 197.181,411.711 
				196.974,411.647 196.767,411.583 196.277,411.431 195.787,411.277 194.805,410.97 193.821,410.663 193.329,410.509 193.3,410.5 
				192.839,410.348 192.35,410.186 191.859,410.024 191.369,409.864 190.879,409.705 190.388,409.547 189.897,409.391 
				189.652,409.313 189.406,409.236 189.161,409.159 188.915,409.083 188.67,409.007 188.424,408.931 188.178,408.856 
				187.932,408.782 187.745,408.725 187.687,408.707 187.443,408.627 187.2,408.549 186.955,408.471 186.711,408.394 
				186.466,408.317 186.222,408.241 185.978,408.166 185.733,408.092 185.489,408.018 185.244,407.945 185.082,407.897 185,407.871 
				184.757,407.795 184.513,407.72 184.27,407.646 184.026,407.573 183.783,407.5 183.539,407.43 183.295,407.359 183.05,407.289 
				182.807,407.22 182.563,407.152 182.319,407.086 182.279,407.075 182.076,407.016 181.831,406.946 181.588,406.878 
				181.345,406.81 181.101,406.745 180.858,406.68 180.613,406.616 180.369,406.553 180.125,406.492 179.881,406.431 
				179.637,406.373 179.393,406.315 179.147,406.258 178.903,406.203 178.658,406.149 178.413,406.096 178.168,406.046 
				177.922,405.996 177.676,405.947 177.431,405.9 177.185,405.854 176.939,405.81 176.693,405.768 176.446,405.726 
				176.372,405.714 176.324,405.705 176.201,405.684 176.077,405.663 175.955,405.641 175.831,405.621 175.708,405.601 
				175.585,405.58 175.461,405.561 175.339,405.543 175.215,405.524 175.091,405.505 174.968,405.488 174.844,405.471 
				174.721,405.454 174.597,405.438 174.473,405.421 174.35,405.406 174.226,405.391 174.102,405.376 173.978,405.362 
				173.854,405.347 173.73,405.334 173.606,405.321 173.481,405.309 173.358,405.297 173.233,405.285 173.108,405.274 
				172.985,405.263 172.86,405.253 172.736,405.243 172.611,405.234 172.486,405.225 172.362,405.217 172.237,405.208 
				172.112,405.201 171.987,405.194 171.862,405.187 171.738,405.181 171.612,405.176 171.487,405.171 171.363,405.167 
				171.237,405.163 171.111,405.159 170.987,405.156 170.861,405.153 170.735,405.151 170.61,405.15 170.484,405.149 
				170.359,405.148 170.312,405.148 170.233,405.147 170.107,405.147 169.982,405.146 169.855,405.147 169.729,405.147 
				169.604,405.149 169.477,405.151 169.35,405.153 169.225,405.156 169.098,405.159 168.971,405.163 168.845,405.168 
				168.718,405.173 168.591,405.179 168.465,405.185 168.338,405.192 168.212,405.199 168.084,405.207 167.957,405.217 
				167.831,405.226 167.703,405.235 167.575,405.245 167.449,405.256 167.321,405.268 167.193,405.28 167.066,405.293 
				166.938,405.306 166.81,405.32 166.683,405.334 166.555,405.349 166.427,405.366 166.298,405.382 166.171,405.398 
				166.043,405.416 165.914,405.435 165.786,405.453 165.658,405.473 165.529,405.492 165.401,405.513 165.272,405.535 
				165.143,405.557 165.039,405.575 164.936,405.594 164.831,405.613 164.727,405.632 164.623,405.652 164.538,405.67 
				164.519,405.673 164.415,405.693 164.311,405.713 164.206,405.734 164.102,405.756 163.998,405.778 163.894,405.8 
				163.79,405.823 163.686,405.846 163.582,405.869 163.479,405.893 163.375,405.918 163.271,405.942 163.168,405.967 
				163.064,405.994 162.961,406.02 162.858,406.047 162.753,406.073 162.65,406.1 162.548,406.129 162.444,406.156 162.237,406.214 
				162.032,406.272 161.826,406.333 161.62,406.396 161.416,406.46 161.211,406.525 161.006,406.592 160.803,406.659 
				160.599,406.729 160.395,406.8 160.192,406.873 159.989,406.947 159.787,407.022 159.585,407.099 159.383,407.177 
				159.183,407.257 158.982,407.337 158.781,407.419 158.582,407.503 158.382,407.588 158.184,407.673 157.985,407.76 
				157.786,407.848 157.589,407.937 157.392,408.028 157.196,408.12 156.999,408.213 156.803,408.306 156.608,408.401 
				156.413,408.497 156.22,408.594 156.026,408.692 155.833,408.791 155.751,408.834 155.64,408.891 155.448,408.991 
				155.256,409.092 155.065,409.195 154.874,409.298 154.685,409.401 154.495,409.507 154.307,409.612 154.118,409.72 
				153.931,409.827 153.745,409.935 153.558,410.045 153.373,410.155 153.187,410.266 153.004,410.377 152.82,410.49 
				152.637,410.603 152.456,410.716 152.357,410.699 152.381,410.603 152.558,410.481 152.736,410.36 152.915,410.239 
				153.094,410.119 153.273,409.998 153.454,409.879 153.635,409.759 153.816,409.64 153.998,409.522 154.18,409.403 
				154.364,409.286 154.547,409.169 154.73,409.053 154.915,408.936 155.1,408.821 155.286,408.706 155.472,408.592 
				155.578,408.527 155.659,408.479 155.847,408.367 156.035,408.255 156.224,408.145 156.413,408.035 156.603,407.926 
				156.793,407.818 156.985,407.71 157.176,407.603 157.369,407.497 157.561,407.392 157.754,407.288 157.949,407.185 
				158.143,407.083 158.338,406.981 158.533,406.88 158.729,406.781 158.925,406.683 159.123,406.586 159.32,406.488 
				159.519,406.393 159.718,406.299 159.916,406.206 160.117,406.113 160.316,406.022 160.518,405.932 160.72,405.843 
				160.921,405.756 161.124,405.669 161.328,405.583 161.531,405.499 161.735,405.416 161.941,405.335 162.145,405.255 
				162.249,405.215 162.352,405.176 162.454,405.137 162.558,405.098 162.661,405.06 162.765,405.022 162.869,404.984 
				162.973,404.946 163.076,404.91 163.181,404.873 163.285,404.837 163.39,404.8 163.495,404.765 163.599,404.73 163.704,404.695 
				163.809,404.66 163.914,404.626 164.02,404.592 164.125,404.559 164.23,404.526 164.25,404.521 164.337,404.494 164.443,404.463 
				164.549,404.431 164.655,404.401 164.762,404.371 164.869,404.341 165,404.305 165.131,404.269 165.263,404.234 165.394,404.199 
				165.525,404.166 165.656,404.133 165.788,404.1 165.92,404.068 166.05,404.036 166.182,404.006 166.314,403.975 166.445,403.945 
				166.576,403.916 166.708,403.887 166.84,403.859 166.971,403.832 167.103,403.804 167.235,403.778 167.367,403.751 
				167.498,403.726 167.63,403.702 167.762,403.677 167.893,403.653 168.025,403.63 168.157,403.608 168.288,403.585 
				168.42,403.564 168.552,403.543 168.684,403.522 168.816,403.501 168.948,403.482 169.08,403.463 169.212,403.444 
				169.344,403.426 169.476,403.409 169.608,403.392 169.74,403.376 169.872,403.359 170.004,403.343 170.137,403.329 
				170.22,403.32 170.268,403.315 170.401,403.302 170.533,403.289 170.665,403.278 170.797,403.266 170.929,403.256 
				171.062,403.246 171.193,403.236 171.326,403.227 171.459,403.217 171.591,403.209 171.723,403.201 171.855,403.194 
				171.988,403.187 172.12,403.18 172.252,403.174 172.384,403.169 172.517,403.164 172.648,403.159 172.781,403.155 
				172.913,403.151 173.046,403.148 173.177,403.145 173.31,403.143 173.443,403.141 173.575,403.139 173.707,403.138 
				173.839,403.138 173.972,403.138 			"/>
			<polygon style="fill-rule:evenodd;clip-rule:evenodd;fill:#253D62;" points="111.449,441.746 114.581,441.795 114.92,441.8 
				117.625,441.902 119.683,441.976 120.559,442.023 123.367,442.161 124.219,442.202 126.025,442.303 128.42,442.427 
				128.517,442.432 130.822,442.56 131.898,442.613 132.919,442.66 133.885,442.7 134.791,442.735 135.362,442.756 135.635,442.766 
				136.416,442.795 137.13,442.817 137.775,442.836 138.348,442.85 138.849,442.863 139.272,442.874 139.431,442.879 
				139.455,442.879 139.617,442.884 139.632,442.9 139.616,442.915 139.454,442.914 139.431,442.914 139.271,442.913 
				138.848,442.913 138.348,442.915 137.774,442.92 137.13,442.929 136.415,442.943 135.634,442.964 135.361,442.972 
				134.79,442.988 133.884,443.016 132.919,443.051 131.897,443.093 130.821,443.141 128.516,443.262 128.419,443.268 
				126.024,443.386 124.219,443.486 123.366,443.525 120.559,443.662 119.683,443.708 117.625,443.783 114.92,443.886 
				114.582,443.891 111.45,443.942 110.046,443.965 108.25,443.945 104.204,443.899 101.72,443.834 96.924,443.715 88.888,443.482 
				88.701,443.476 82.526,443.302 80.78,443.258 79.591,443.226 76.785,443.156 74.125,443.095 71.634,443.044 69.329,443.001 
				67.232,442.966 67.084,442.963 66.267,442.949 65.361,442.935 64.516,442.922 63.736,442.911 63.022,442.9 62.377,442.891 
				61.803,442.883 61.608,442.879 61.303,442.875 61.263,442.837 61.304,442.8 61.803,442.799 62.377,442.798 63.022,442.795 
				63.736,442.791 64.516,442.784 65.361,442.776 66.267,442.766 67.084,442.755 67.232,442.753 69.33,442.723 71.634,442.683 
				74.126,442.633 76.785,442.573 79.591,442.501 80.78,442.469 82.526,442.423 88.7,442.242 88.887,442.237 96.922,441.991 
				101.719,441.866 104.203,441.798 108.249,441.747 110.045,441.725 			"/>
			<polygon style="fill-rule:evenodd;clip-rule:evenodd;fill:#253D62;" points="187.518,441.747 191.564,441.798 194.047,441.866 
				198.845,441.991 206.88,442.237 207.066,442.242 213.241,442.423 214.988,442.469 216.175,442.501 218.982,442.573 
				221.641,442.633 224.133,442.683 226.437,442.723 228.535,442.753 228.682,442.755 229.5,442.766 230.406,442.776 
				231.25,442.784 232.03,442.791 232.744,442.795 233.39,442.798 233.963,442.799 234.158,442.799 234.463,442.8 234.503,442.837 
				234.464,442.875 234.159,442.879 233.963,442.883 233.39,442.891 232.744,442.9 232.031,442.911 231.251,442.922 
				230.406,442.935 229.5,442.949 228.683,442.963 228.535,442.966 226.437,443.001 224.133,443.044 221.641,443.095 
				218.982,443.156 216.175,443.226 214.986,443.258 213.241,443.302 207.066,443.476 206.879,443.482 198.843,443.715 
				194.046,443.834 191.563,443.899 187.517,443.945 185.721,443.965 184.316,443.942 181.185,443.891 180.846,443.886 
				178.142,443.783 176.084,443.708 175.207,443.662 172.401,443.525 171.548,443.486 169.742,443.386 167.348,443.268 
				167.25,443.262 164.946,443.141 163.87,443.093 162.848,443.051 161.883,443.016 160.977,442.988 160.406,442.972 
				160.132,442.964 159.352,442.943 158.637,442.929 157.992,442.92 157.419,442.915 156.919,442.913 156.495,442.913 
				156.336,442.914 156.313,442.914 156.15,442.915 156.135,442.9 156.15,442.884 156.312,442.879 156.494,442.874 156.918,442.863 
				157.417,442.85 157.992,442.836 158.636,442.817 159.351,442.795 160.131,442.766 160.405,442.756 160.976,442.735 
				161.882,442.7 162.847,442.66 163.869,442.613 164.945,442.56 167.249,442.432 167.347,442.427 169.74,442.303 171.547,442.202 
				172.4,442.161 175.207,442.023 176.084,441.976 178.142,441.902 180.847,441.8 181.185,441.795 184.317,441.746 185.722,441.725 
							"/>
			<polygon style="fill-rule:evenodd;clip-rule:evenodd;fill:#253D62;" points="59.732,424.652 59.943,424.672 60.191,424.69 
				60.42,424.702 60.44,424.703 60.69,424.716 60.941,424.727 61.193,424.733 61.379,424.735 61.446,424.738 61.698,424.747 
				61.951,424.753 62.205,424.756 62.445,424.758 62.458,424.758 62.711,424.769 62.964,424.778 62.978,424.778 63.09,424.787 
				63.215,424.796 63.341,424.806 63.467,424.815 63.488,424.816 63.593,424.83 63.718,424.846 63.843,424.862 63.968,424.878 
				64.047,424.887 64.093,424.895 64.218,424.915 64.343,424.935 64.468,424.954 64.593,424.973 64.699,424.988 64.718,424.992 
				64.843,425.013 64.968,425.034 65.093,425.054 65.218,425.073 65.343,425.092 65.468,425.109 65.593,425.127 65.717,425.143 
				65.842,425.158 65.967,425.172 66.083,425.185 66.092,425.186 66.217,425.202 66.341,425.216 66.466,425.229 66.59,425.241 
				66.715,425.252 66.839,425.263 66.963,425.272 67.087,425.279 67.211,425.286 67.334,425.291 67.458,425.295 67.581,425.298 
				67.704,425.3 67.764,425.349 67.708,425.401 67.585,425.413 67.462,425.425 67.338,425.436 67.214,425.447 67.09,425.458 
				66.965,425.469 66.841,425.48 66.715,425.492 66.59,425.504 66.464,425.515 66.338,425.526 66.212,425.538 66.085,425.549 
				66.076,425.55 65.959,425.558 65.832,425.566 65.705,425.575 65.577,425.583 65.45,425.591 65.322,425.599 65.194,425.606 
				65.065,425.613 64.937,425.62 64.808,425.627 64.68,425.634 64.66,425.635 64.551,425.637 64.423,425.639 64.294,425.641 
				64.165,425.643 64.036,425.645 63.988,425.645 63.907,425.641 63.778,425.636 63.65,425.631 63.521,425.625 63.413,425.619 
				63.393,425.617 63.265,425.602 63.137,425.586 63.01,425.569 62.896,425.555 62.882,425.552 62.629,425.507 62.376,425.46 
				62.363,425.457 62.126,425.401 61.876,425.341 61.627,425.283 61.379,425.223 61.313,425.207 61.132,425.157 60.887,425.09 
				60.643,425.025 60.399,424.961 60.379,424.956 60.157,424.896 59.916,424.832 59.711,424.78 59.676,424.771 59.625,424.7 
				59.697,424.65 			"/>
			<polygon style="fill-rule:evenodd;clip-rule:evenodd;fill:#253D62;" points="236.141,424.7 236.09,424.771 236.056,424.78 
				235.85,424.832 235.609,424.896 235.387,424.956 235.368,424.961 235.124,425.025 234.879,425.09 234.634,425.157 
				234.454,425.207 234.388,425.223 234.14,425.283 233.89,425.341 233.641,425.401 233.403,425.457 233.39,425.46 233.138,425.507 
				232.884,425.552 232.871,425.555 232.757,425.569 232.629,425.586 232.501,425.602 232.374,425.617 232.353,425.619 
				232.246,425.625 232.117,425.631 231.989,425.636 231.86,425.641 231.779,425.645 231.731,425.645 231.602,425.643 
				231.473,425.641 231.344,425.639 231.215,425.637 231.107,425.635 231.087,425.634 230.958,425.627 230.829,425.62 
				230.701,425.613 230.573,425.606 230.444,425.599 230.317,425.591 230.189,425.583 230.063,425.575 229.935,425.566 
				229.808,425.558 229.691,425.55 229.681,425.549 229.555,425.538 229.428,425.526 229.302,425.515 229.177,425.504 
				229.051,425.492 228.926,425.48 228.801,425.469 228.676,425.458 228.553,425.447 228.428,425.436 228.304,425.425 
				228.182,425.413 228.058,425.401 228.003,425.349 228.062,425.3 228.186,425.298 228.309,425.295 228.432,425.291 
				228.556,425.286 228.679,425.279 228.804,425.272 228.928,425.263 229.052,425.252 229.176,425.241 229.3,425.229 
				229.425,425.216 229.55,425.202 229.674,425.186 229.683,425.185 229.799,425.172 229.925,425.158 230.049,425.143 
				230.174,425.127 230.298,425.109 230.424,425.092 230.549,425.073 230.673,425.054 230.799,425.034 230.924,425.013 
				231.048,424.992 231.068,424.988 231.173,424.973 231.299,424.954 231.423,424.935 231.548,424.915 231.673,424.895 
				231.72,424.887 231.798,424.878 231.924,424.862 232.048,424.846 232.174,424.83 232.279,424.816 232.3,424.815 232.425,424.806 
				232.551,424.796 232.677,424.787 232.789,424.778 232.802,424.778 233.056,424.769 233.308,424.758 233.321,424.758 
				233.562,424.756 233.815,424.753 234.068,424.747 234.32,424.738 234.387,424.735 234.573,424.733 234.826,424.727 
				235.076,424.716 235.326,424.703 235.347,424.702 235.575,424.69 235.824,424.672 236.035,424.652 236.07,424.65 			"/>
			<polygon style="fill-rule:evenodd;clip-rule:evenodd;fill:#253D62;" points="59.307,418.887 59.393,418.926 59.515,418.978 
				59.638,419.03 59.762,419.081 59.888,419.129 60.015,419.177 60.137,419.222 60.143,419.224 60.271,419.27 60.399,419.316 
				60.529,419.361 60.66,419.405 60.791,419.447 60.923,419.488 61.056,419.528 61.19,419.567 61.245,419.582 61.323,419.607 
				61.455,419.648 61.588,419.689 61.722,419.728 61.856,419.767 61.991,419.803 62.126,419.84 62.261,419.874 62.397,419.908 
				62.439,419.918 62.531,419.946 62.664,419.985 62.798,420.023 62.931,420.06 63.015,420.082 63.064,420.099 63.196,420.142 
				63.327,420.184 63.459,420.226 63.55,420.253 63.589,420.269 63.717,420.321 63.846,420.372 63.974,420.421 64.102,420.47 
				64.103,420.471 64.229,420.528 64.356,420.582 64.483,420.637 64.61,420.69 64.723,420.735 64.738,420.742 64.864,420.799 
				64.991,420.855 65.118,420.909 65.246,420.96 65.374,421.01 65.502,421.059 65.631,421.105 65.76,421.15 65.89,421.192 
				66.019,421.233 66.028,421.236 66.148,421.275 66.278,421.316 66.407,421.354 66.537,421.391 66.668,421.424 66.798,421.455 
				66.928,421.484 67.059,421.509 67.121,421.522 67.189,421.534 67.32,421.556 67.45,421.575 67.515,421.583 67.58,421.591 
				67.629,421.64 67.576,421.684 67.51,421.685 67.444,421.686 67.31,421.688 67.177,421.69 67.106,421.691 67.042,421.691 
				66.907,421.692 66.771,421.691 66.635,421.691 66.497,421.69 66.359,421.688 66.221,421.687 66.081,421.684 65.951,421.682 
				65.941,421.681 65.801,421.674 65.661,421.665 65.52,421.656 65.378,421.647 65.236,421.637 65.093,421.627 64.95,421.615 
				64.806,421.603 64.662,421.591 64.518,421.577 64.5,421.575 64.375,421.557 64.231,421.536 64.088,421.513 63.944,421.49 
				63.801,421.466 63.8,421.466 63.66,421.431 63.519,421.396 63.378,421.361 63.237,421.323 63.194,421.312 63.1,421.276 
				62.964,421.226 62.828,421.174 62.693,421.12 62.642,421.101 62.56,421.063 62.429,421 62.298,420.937 62.167,420.874 
				62.077,420.83 62.038,420.807 61.912,420.736 61.786,420.663 61.66,420.591 61.536,420.52 61.411,420.447 61.288,420.374 
				61.165,420.301 61.042,420.228 60.97,420.184 60.921,420.152 60.802,420.074 60.684,419.996 60.565,419.918 60.448,419.841 
				60.331,419.764 60.215,419.687 60.099,419.61 59.984,419.534 59.979,419.53 59.871,419.456 59.758,419.379 59.645,419.302 
				59.533,419.226 59.421,419.151 59.31,419.076 59.232,419.023 59.2,419.002 59.171,418.901 59.272,418.872 			"/>
			<polygon style="fill-rule:evenodd;clip-rule:evenodd;fill:#253D62;" points="236.596,418.901 236.566,419.002 236.535,419.023 
				236.456,419.076 236.345,419.151 236.234,419.226 236.122,419.302 236.009,419.379 235.896,419.456 235.787,419.53 
				235.782,419.534 235.668,419.61 235.551,419.687 235.436,419.764 235.318,419.841 235.201,419.918 235.083,419.996 
				234.964,420.074 234.846,420.152 234.796,420.184 234.724,420.228 234.602,420.301 234.479,420.374 234.355,420.447 
				234.231,420.52 234.106,420.591 233.981,420.663 233.855,420.736 233.728,420.807 233.689,420.83 233.6,420.874 233.469,420.937 
				233.338,421 233.206,421.063 233.124,421.101 233.074,421.12 232.938,421.174 232.803,421.226 232.666,421.276 232.572,421.312 
				232.53,421.323 232.389,421.361 232.248,421.396 232.107,421.431 231.966,421.466 231.822,421.49 231.679,421.513 
				231.535,421.536 231.392,421.557 231.266,421.575 231.249,421.577 231.104,421.591 230.96,421.603 230.816,421.615 
				230.673,421.627 230.531,421.637 230.389,421.647 230.247,421.656 230.106,421.665 229.965,421.674 229.825,421.681 
				229.816,421.682 229.685,421.684 229.546,421.687 229.407,421.688 229.269,421.69 229.132,421.691 228.995,421.691 
				228.86,421.692 228.724,421.691 228.66,421.691 228.59,421.69 228.456,421.688 228.323,421.686 228.257,421.685 228.191,421.684 
				228.138,421.64 228.186,421.591 228.252,421.583 228.317,421.575 228.447,421.556 228.577,421.534 228.646,421.522 
				228.708,421.509 228.838,421.484 228.969,421.455 229.099,421.424 229.23,421.391 229.359,421.354 229.489,421.316 
				229.619,421.275 229.739,421.236 229.747,421.233 229.877,421.192 230.007,421.15 230.135,421.105 230.264,421.059 
				230.393,421.01 230.52,420.96 230.648,420.909 230.776,420.855 230.902,420.799 231.029,420.742 231.044,420.735 231.157,420.69 
				231.283,420.637 231.411,420.582 231.538,420.528 231.664,420.47 231.792,420.421 231.921,420.372 232.049,420.321 
				232.177,420.269 232.217,420.253 232.308,420.226 232.439,420.184 232.571,420.142 232.702,420.099 232.752,420.082 
				232.835,420.06 232.968,420.023 233.102,419.985 233.236,419.946 233.328,419.918 233.37,419.908 233.505,419.874 
				233.641,419.84 233.776,419.803 233.911,419.767 234.044,419.728 234.178,419.689 234.311,419.648 234.444,419.607 
				234.522,419.582 234.576,419.567 234.71,419.528 234.843,419.488 234.976,419.447 235.107,419.405 235.237,419.361 
				235.367,419.316 235.496,419.27 235.624,419.224 235.629,419.222 235.752,419.177 235.878,419.129 236.004,419.081 
				236.129,419.03 236.252,418.978 236.374,418.926 236.46,418.887 236.494,418.872 			"/>
			<polygon style="fill-rule:evenodd;clip-rule:evenodd;fill:#253D62;" points="154.858,442.852 154.806,442.995 154.702,443.058 
				154.597,443.121 154.492,443.184 154.387,443.246 154.282,443.307 154.177,443.368 154.084,443.422 154.072,443.428 
				153.966,443.487 153.861,443.546 153.756,443.604 153.65,443.661 153.545,443.717 153.44,443.773 153.334,443.829 
				153.228,443.884 153.122,443.938 153.017,443.991 152.911,444.044 152.804,444.097 152.699,444.148 152.592,444.2 
				152.486,444.25 152.38,444.3 152.272,444.349 152.26,444.355 152.165,444.396 152.057,444.442 151.95,444.487 151.842,444.531 
				151.734,444.575 151.626,444.618 151.518,444.66 151.409,444.702 151.301,444.742 151.191,444.783 151.083,444.822 
				150.973,444.861 150.864,444.899 150.755,444.936 150.645,444.973 150.536,445.009 150.425,445.044 150.315,445.079 
				150.205,445.112 150.094,445.146 149.983,445.178 149.873,445.21 149.857,445.214 149.76,445.237 149.649,445.263 
				149.537,445.289 149.424,445.313 149.312,445.337 149.199,445.36 149.087,445.382 148.973,445.404 148.861,445.424 
				148.747,445.444 148.648,445.46 148.634,445.462 148.519,445.475 148.406,445.487 148.291,445.498 148.177,445.508 
				148.062,445.517 147.948,445.525 147.833,445.533 147.719,445.539 147.604,445.545 147.579,445.546 147.489,445.544 
				147.374,445.54 147.26,445.536 147.144,445.53 147.03,445.524 146.915,445.517 146.801,445.509 146.685,445.5 146.593,445.492 
				146.571,445.489 146.456,445.474 146.343,445.457 146.228,445.439 146.115,445.421 146,445.402 145.887,445.382 145.773,445.361 
				145.66,445.339 145.58,445.323 145.546,445.315 145.434,445.287 145.322,445.258 145.209,445.228 145.097,445.198 
				144.984,445.166 144.873,445.134 144.761,445.102 144.65,445.068 144.538,445.034 144.427,444.999 144.315,444.964 
				144.204,444.927 144.093,444.89 143.982,444.852 143.872,444.814 143.761,444.774 143.651,444.734 143.625,444.725 
				143.541,444.691 143.432,444.646 143.322,444.6 143.213,444.554 143.105,444.508 142.995,444.46 142.887,444.412 
				142.777,444.364 142.669,444.315 142.561,444.265 142.452,444.215 142.344,444.164 142.235,444.112 142.127,444.06 
				142.018,444.007 141.955,443.976 141.91,443.953 141.803,443.898 141.694,443.842 141.587,443.786 141.478,443.729 
				141.371,443.672 141.262,443.614 141.155,443.555 141.047,443.497 140.939,443.438 140.831,443.378 140.774,443.347 
				140.722,443.318 140.676,443.191 140.802,443.145 140.858,443.166 140.918,443.188 141.033,443.23 141.147,443.271 
				141.262,443.31 141.377,443.349 141.492,443.385 141.606,443.421 141.72,443.456 141.835,443.489 141.949,443.521 
				142.064,443.551 142.112,443.564 142.178,443.582 142.292,443.612 142.406,443.64 142.518,443.668 142.631,443.694 
				142.745,443.72 142.857,443.744 142.97,443.767 143.082,443.789 143.195,443.81 143.307,443.83 143.419,443.848 143.531,443.866 
				143.643,443.882 143.754,443.897 143.84,443.908 143.865,443.913 143.975,443.929 144.085,443.945 144.195,443.96 
				144.304,443.974 144.414,443.986 144.523,443.998 144.632,444.009 144.74,444.019 144.848,444.028 144.957,444.035 
				145.065,444.042 145.173,444.048 145.281,444.053 145.388,444.057 145.495,444.06 145.602,444.062 145.709,444.063 
				145.74,444.063 145.815,444.067 145.92,444.071 146.027,444.074 146.132,444.077 146.236,444.079 146.342,444.079 
				146.446,444.079 146.552,444.078 146.656,444.077 146.676,444.076 146.76,444.078 146.864,444.08 146.968,444.081 
				147.071,444.081 147.176,444.08 147.279,444.078 147.382,444.076 147.486,444.073 147.567,444.07 147.589,444.07 
				147.692,444.073 147.797,444.075 147.9,444.076 148.004,444.076 148.107,444.076 148.211,444.074 148.315,444.072 
				148.418,444.069 148.522,444.065 148.535,444.065 148.627,444.065 148.731,444.065 148.835,444.064 148.94,444.062 
				149.045,444.059 149.15,444.055 149.255,444.051 149.36,444.045 149.466,444.039 149.571,444.031 149.661,444.024 
				149.676,444.024 149.783,444.019 149.889,444.013 149.996,444.005 150.103,443.997 150.209,443.988 150.317,443.978 
				150.424,443.967 150.532,443.956 150.639,443.943 150.746,443.929 150.855,443.914 150.962,443.898 151.071,443.881 
				151.179,443.863 151.287,443.845 151.396,443.825 151.504,443.804 151.614,443.783 151.722,443.76 151.832,443.736 
				151.94,443.712 152.037,443.689 152.049,443.686 152.16,443.662 152.269,443.636 152.38,443.61 152.49,443.582 152.601,443.553 
				152.711,443.524 152.821,443.493 152.933,443.461 153.043,443.428 153.154,443.394 153.265,443.359 153.376,443.323 
				153.487,443.286 153.598,443.248 153.709,443.209 153.821,443.168 153.931,443.127 153.944,443.122 154.042,443.086 
				154.154,443.043 154.265,442.999 154.377,442.954 154.488,442.908 154.6,442.86 154.712,442.812 			"/>
			<polygon style="fill-rule:evenodd;clip-rule:evenodd;fill:#253D62;" points="148.237,308.546 148.5,308.547 148.762,308.549 
				149.025,308.552 149.287,308.555 149.55,308.559 149.811,308.564 150.074,308.57 150.335,308.577 150.596,308.584 
				150.858,308.592 151.118,308.602 151.214,308.606 151.38,308.613 151.64,308.624 151.9,308.637 152.161,308.65 152.42,308.664 
				152.681,308.679 152.94,308.695 153.199,308.711 153.458,308.728 153.717,308.746 153.976,308.766 154.234,308.785 
				154.492,308.806 154.75,308.828 155.008,308.849 155.265,308.872 155.523,308.897 155.779,308.921 156.036,308.946 
				156.293,308.973 156.549,308.999 156.806,309.027 157.061,309.056 157.317,309.085 157.573,309.114 157.827,309.146 
				158.082,309.177 158.337,309.21 158.591,309.243 158.845,309.277 159.099,309.312 159.353,309.347 159.606,309.384 
				159.859,309.421 160.113,309.459 160.365,309.497 160.617,309.537 160.87,309.577 161.122,309.619 161.16,309.625 
				161.373,309.661 161.624,309.704 161.876,309.749 162.126,309.793 162.376,309.839 162.627,309.885 162.877,309.932 
				163.126,309.981 163.375,310.029 163.625,310.078 163.874,310.129 164.122,310.179 164.37,310.231 164.619,310.284 
				164.866,310.336 165.113,310.391 165.36,310.445 165.607,310.5 165.854,310.557 166.1,310.614 166.346,310.672 166.591,310.729 
				166.837,310.789 167.082,310.849 167.327,310.91 167.571,310.971 167.815,311.032 168.06,311.095 168.303,311.159 
				168.547,311.224 168.789,311.289 169.032,311.355 169.274,311.42 169.517,311.488 169.759,311.556 170,311.625 170.241,311.694 
				170.482,311.764 170.722,311.835 170.962,311.907 171.203,311.979 171.443,312.052 171.682,312.126 171.758,312.149 
				171.92,312.201 172.159,312.277 172.397,312.353 172.634,312.43 172.872,312.508 173.109,312.587 173.346,312.666 
				173.583,312.746 173.819,312.827 174.055,312.909 174.29,312.991 174.525,313.074 174.76,313.157 174.994,313.241 
				175.228,313.326 175.462,313.413 175.695,313.499 175.928,313.586 176.161,313.674 176.393,313.762 176.625,313.851 
				176.857,313.94 177.089,314.031 177.319,314.123 177.55,314.214 177.78,314.307 178.01,314.4 178.24,314.494 178.469,314.589 
				178.699,314.684 178.926,314.779 179.154,314.877 179.382,314.974 179.61,315.071 179.837,315.17 180.063,315.27 180.29,315.369 
				180.516,315.47 180.741,315.572 180.967,315.673 181.191,315.775 181.416,315.879 181.64,315.983 181.864,316.087 
				182.087,316.193 182.31,316.298 182.533,316.405 182.755,316.512 182.976,316.62 183.198,316.729 183.419,316.837 
				183.64,316.948 183.86,317.058 184.08,317.168 184.3,317.281 184.519,317.392 184.737,317.506 184.955,317.619 185.173,317.734 
				185.391,317.848 185.608,317.964 185.825,318.08 186.041,318.197 186.257,318.315 186.473,318.433 186.688,318.552 
				186.903,318.67 187.117,318.791 187.331,318.911 187.544,319.032 187.758,319.155 187.971,319.277 188.182,319.4 
				188.394,319.523 188.606,319.648 188.817,319.772 189.027,319.898 189.237,320.024 189.447,320.151 189.657,320.278 
				189.865,320.406 190.074,320.534 190.283,320.664 190.491,320.794 190.697,320.924 190.904,321.055 191.111,321.187 
				191.316,321.319 191.522,321.452 191.727,321.585 191.931,321.719 192.136,321.854 192.34,321.988 192.543,322.124 
				192.746,322.261 192.938,322.391 192.949,322.398 193.15,322.536 193.352,322.674 193.553,322.813 193.753,322.953 
				193.953,323.094 194.152,323.235 194.351,323.377 194.55,323.518 194.747,323.661 194.946,323.805 195.142,323.949 
				195.339,324.093 195.535,324.238 195.731,324.384 195.927,324.53 196.121,324.677 196.316,324.823 196.51,324.971 
				196.704,325.12 196.896,325.269 197.089,325.418 197.281,325.568 197.473,325.719 197.663,325.87 197.855,326.022 
				198.044,326.174 198.235,326.327 198.423,326.481 198.613,326.635 198.801,326.789 198.989,326.944 199.176,327.1 
				199.362,327.256 199.549,327.413 199.735,327.57 199.921,327.728 200.105,327.887 200.29,328.046 200.474,328.205 
				200.657,328.365 200.84,328.525 201.022,328.686 201.204,328.847 201.386,329.009 201.567,329.172 201.748,329.336 
				201.927,329.499 202.106,329.663 202.286,329.828 202.464,329.993 202.642,330.158 202.82,330.325 202.997,330.492 
				203.173,330.659 203.349,330.827 203.525,330.995 203.699,331.164 203.873,331.334 204.048,331.503 204.221,331.674 
				204.394,331.844 204.566,332.016 204.739,332.188 204.91,332.36 205.08,332.533 205.25,332.707 205.421,332.881 205.59,333.055 
				205.758,333.229 205.926,333.405 206.094,333.581 206.262,333.757 206.428,333.935 206.594,334.112 206.759,334.289 
				206.924,334.467 207.089,334.647 207.252,334.826 207.417,335.005 207.579,335.186 207.742,335.367 207.903,335.549 
				208.064,335.73 208.225,335.912 208.385,336.095 208.544,336.278 208.703,336.461 208.862,336.646 209.021,336.83 
				209.178,337.016 209.335,337.201 209.491,337.387 209.647,337.573 209.802,337.76 209.957,337.948 210.111,338.135 
				210.264,338.324 210.417,338.513 210.57,338.702 210.722,338.892 210.863,339.07 210.873,339.082 211.023,339.273 
				211.173,339.465 211.322,339.656 211.471,339.849 211.618,340.041 211.766,340.234 211.913,340.428 212.059,340.622 
				212.205,340.816 212.35,341.011 212.495,341.207 212.639,341.402 212.783,341.599 212.926,341.795 213.067,341.993 
				213.209,342.19 213.351,342.388 213.491,342.586 213.632,342.785 213.771,342.985 213.91,343.184 214.047,343.385 
				214.185,343.586 214.322,343.786 214.459,343.988 214.594,344.19 214.73,344.392 214.864,344.595 214.999,344.797 
				215.131,345.001 215.265,345.205 215.397,345.409 215.529,345.614 215.659,345.819 215.79,346.025 215.92,346.231 
				216.049,346.437 216.177,346.643 216.306,346.851 216.432,347.059 216.56,347.267 216.686,347.475 216.811,347.684 
				216.936,347.893 217.061,348.103 217.184,348.312 217.307,348.523 217.429,348.734 217.551,348.946 217.673,349.156 
				217.793,349.369 217.913,349.581 218.032,349.794 218.151,350.007 218.269,350.22 218.386,350.434 218.503,350.649 
				218.619,350.864 218.734,351.078 218.85,351.293 218.963,351.509 219.077,351.726 219.19,351.942 219.303,352.159 
				219.414,352.376 219.526,352.594 219.635,352.812 219.746,353.03 219.854,353.249 219.962,353.468 220.071,353.688 
				220.178,353.907 220.285,354.127 220.39,354.348 220.495,354.569 220.6,354.79 220.704,355.012 220.807,355.234 220.91,355.457 
				221.011,355.679 221.113,355.902 221.213,356.125 221.313,356.349 221.412,356.573 221.511,356.797 221.609,357.022 
				221.706,357.247 221.803,357.473 221.899,357.699 221.994,357.925 222.088,358.151 222.182,358.378 222.276,358.605 
				222.368,358.833 222.46,359.061 222.551,359.289 222.641,359.517 222.696,359.656 222.732,359.746 222.82,359.976 
				222.908,360.205 222.995,360.435 223.082,360.665 223.168,360.896 223.253,361.127 223.338,361.358 223.422,361.59 
				223.505,361.821 223.588,362.054 223.669,362.286 223.75,362.519 223.831,362.752 223.91,362.985 223.989,363.219 
				224.068,363.453 224.145,363.687 224.222,363.921 224.298,364.156 224.374,364.391 224.449,364.628 224.523,364.863 
				224.596,365.1 224.669,365.336 224.741,365.573 224.812,365.809 224.883,366.047 224.953,366.284 225.022,366.522 225.09,366.76 
				225.158,366.998 225.225,367.237 225.291,367.477 225.357,367.716 225.422,367.955 225.486,368.195 225.548,368.435 
				225.611,368.675 225.673,368.917 225.735,369.158 225.795,369.399 225.854,369.64 225.913,369.882 225.972,370.123 
				226.03,370.366 226.086,370.609 226.142,370.852 226.197,371.095 226.252,371.338 226.305,371.581 226.359,371.826 
				226.411,372.07 226.462,372.314 226.513,372.558 226.564,372.803 226.613,373.048 226.662,373.294 226.71,373.54 
				226.756,373.785 226.803,374.031 226.848,374.279 226.893,374.525 226.938,374.772 226.981,375.019 227.024,375.266 
				227.065,375.514 227.106,375.762 227.146,376.01 227.186,376.258 227.224,376.507 227.263,376.756 227.3,377.004 
				227.337,377.253 227.372,377.504 227.407,377.753 227.441,378.003 227.475,378.253 227.507,378.504 227.539,378.754 
				227.57,379.005 227.6,379.255 227.63,379.507 227.659,379.759 227.686,380.01 227.714,380.263 227.74,380.515 227.765,380.767 
				227.791,381.02 227.815,381.272 227.837,381.525 227.861,381.779 227.882,382.032 227.903,382.285 227.923,382.539 
				227.943,382.794 227.961,383.048 227.978,383.302 227.995,383.557 228.012,383.812 228.027,384.066 228.041,384.322 
				228.055,384.577 228.068,384.832 228.081,385.089 228.092,385.345 228.102,385.6 228.112,385.857 228.121,386.114 
				228.129,386.371 228.136,386.628 228.142,386.884 228.148,387.142 228.153,387.399 228.158,387.657 228.161,387.915 
				228.163,388.173 228.165,388.431 228.165,388.69 228.165,388.948 228.165,389.207 228.163,389.465 228.16,389.724 
				228.157,389.984 228.153,390.173 228.15,390.362 228.146,390.551 228.142,390.74 228.137,390.929 228.132,391.117 
				228.127,391.306 228.121,391.494 228.114,391.683 228.108,391.87 228.1,392.059 228.093,392.247 228.085,392.435 
				228.076,392.622 228.066,392.81 228.057,392.997 228.047,393.185 228.037,393.372 228.027,393.559 228.016,393.746 
				228.004,393.933 227.991,394.12 227.979,394.306 227.966,394.493 227.953,394.679 227.94,394.865 227.926,395.052 
				227.91,395.237 227.896,395.424 227.88,395.609 227.865,395.795 227.848,395.98 227.831,396.165 227.814,396.351 
				227.797,396.536 227.78,396.721 227.76,396.906 227.742,397.091 227.723,397.275 227.704,397.459 227.683,397.644 227.68,397.67 
				227.663,397.828 227.642,398.012 227.62,398.196 227.598,398.379 227.576,398.563 227.553,398.746 227.529,398.93 
				227.506,399.113 227.482,399.296 227.457,399.479 227.433,399.662 227.408,399.845 227.382,400.027 227.356,400.209 
				227.33,400.392 227.302,400.574 227.275,400.755 227.248,400.938 227.219,401.119 227.191,401.301 227.163,401.482 
				227.133,401.663 227.103,401.844 227.073,402.025 227.043,402.205 227.012,402.387 226.98,402.567 226.949,402.747 
				226.916,402.928 226.884,403.107 226.851,403.287 226.818,403.467 226.784,403.647 226.75,403.827 226.716,404.006 
				226.68,404.184 226.645,404.363 226.609,404.543 226.573,404.721 226.536,404.9 226.5,405.078 226.462,405.256 226.425,405.435 
				226.386,405.612 226.348,405.79 226.309,405.967 226.27,406.145 226.23,406.322 226.191,406.499 226.15,406.677 226.11,406.853 
				226.068,407.03 226.027,407.207 225.984,407.383 225.943,407.559 225.899,407.736 225.856,407.911 225.813,408.087 
				225.768,408.262 225.725,408.438 225.68,408.613 225.635,408.788 225.589,408.963 225.543,409.138 225.497,409.312 
				225.45,409.486 225.404,409.661 225.356,409.835 225.308,410.009 225.261,410.182 225.212,410.356 225.163,410.529 
				225.114,410.702 225.064,410.876 225.014,411.049 224.964,411.221 224.913,411.394 224.861,411.567 224.811,411.739 
				224.758,411.911 224.706,412.082 224.654,412.255 224.6,412.426 224.597,412.436 224.547,412.597 224.493,412.768 
				224.439,412.94 224.384,413.11 224.433,412.938 224.482,412.765 224.529,412.592 224.578,412.419 224.624,412.246 
				224.672,412.073 224.719,411.899 224.765,411.726 224.811,411.552 224.856,411.378 224.902,411.205 224.947,411.031 
				224.991,410.856 225.035,410.682 225.078,410.507 225.122,410.332 225.164,410.157 225.207,409.983 225.25,409.808 
				225.291,409.632 225.332,409.457 225.373,409.281 225.414,409.105 225.453,408.93 225.494,408.754 225.533,408.578 
				225.572,408.401 225.61,408.225 225.649,408.049 225.686,407.872 225.724,407.695 225.761,407.519 225.798,407.341 
				225.833,407.164 225.87,406.987 225.905,406.81 225.94,406.632 225.974,406.454 226.008,406.276 226.043,406.098 226.076,405.92 
				226.109,405.741 226.142,405.563 226.174,405.385 226.206,405.207 226.237,405.028 226.268,404.849 226.299,404.669 
				226.33,404.491 226.359,404.312 226.388,404.133 226.418,403.953 226.446,403.773 226.475,403.593 226.502,403.413 
				226.529,403.234 226.557,403.053 226.583,402.873 226.609,402.693 226.636,402.512 226.661,402.332 226.686,402.151 
				226.711,401.97 226.735,401.789 226.758,401.608 226.782,401.427 226.805,401.246 226.827,401.064 226.849,400.883 
				226.871,400.701 226.892,400.519 226.913,400.337 226.934,400.155 226.954,399.973 226.974,399.791 226.993,399.608 
				227.012,399.426 227.03,399.244 227.048,399.061 227.066,398.878 227.084,398.695 227.1,398.512 227.116,398.329 
				227.132,398.146 227.147,397.963 227.163,397.78 227.176,397.621 227.178,397.596 227.192,397.412 227.206,397.228 
				227.22,397.045 227.233,396.861 227.246,396.676 227.259,396.493 227.271,396.308 227.282,396.124 227.293,395.94 
				227.304,395.754 227.315,395.57 227.325,395.385 227.334,395.2 227.343,395.015 227.352,394.83 227.36,394.645 227.368,394.459 
				227.375,394.274 227.382,394.088 227.388,393.903 227.395,393.717 227.401,393.532 227.406,393.346 227.411,393.16 
				227.415,392.974 227.419,392.787 227.422,392.601 227.426,392.414 227.428,392.228 227.43,392.042 227.432,391.855 
				227.434,391.669 227.435,391.481 227.435,391.295 227.435,391.107 227.435,390.921 227.434,390.733 227.433,390.546 
				227.431,390.359 227.429,390.171 227.427,389.984 227.423,389.726 227.418,389.47 227.412,389.214 227.405,388.957 
				227.398,388.702 227.389,388.446 227.38,388.19 227.371,387.935 227.36,387.68 227.349,387.425 227.337,387.17 227.324,386.916 
				227.309,386.661 227.295,386.408 227.28,386.154 227.264,385.9 227.247,385.647 227.229,385.394 227.21,385.141 227.191,384.888 
				227.171,384.636 227.15,384.384 227.128,384.132 227.106,383.881 227.082,383.63 227.058,383.378 227.034,383.127 
				227.009,382.877 226.982,382.627 226.955,382.376 226.926,382.126 226.898,381.877 226.869,381.626 226.838,381.378 
				226.808,381.129 226.775,380.881 226.743,380.632 226.71,380.383 226.676,380.136 226.641,379.888 226.605,379.641 
				226.569,379.393 226.532,379.147 226.495,378.901 226.455,378.654 226.417,378.409 226.376,378.162 226.336,377.917 
				226.294,377.672 226.252,377.427 226.208,377.181 226.164,376.937 226.12,376.693 226.074,376.45 226.029,376.206 
				225.982,375.962 225.934,375.719 225.886,375.477 225.837,375.234 225.788,374.992 225.737,374.751 225.685,374.509 
				225.634,374.267 225.581,374.026 225.528,373.785 225.473,373.545 225.419,373.305 225.363,373.065 225.307,372.826 
				225.25,372.586 225.192,372.347 225.134,372.108 225.074,371.87 225.014,371.632 224.954,371.394 224.893,371.157 
				224.831,370.92 224.768,370.683 224.704,370.445 224.641,370.209 224.576,369.973 224.51,369.738 224.444,369.502 
				224.376,369.267 224.309,369.033 224.24,368.798 224.171,368.564 224.102,368.331 224.032,368.097 223.96,367.864 
				223.888,367.631 223.816,367.399 223.742,367.167 223.668,366.935 223.594,366.703 223.518,366.471 223.442,366.241 
				223.366,366.009 223.288,365.78 223.21,365.549 223.132,365.32 223.052,365.091 222.972,364.862 222.891,364.634 222.81,364.405 
				222.728,364.178 222.645,363.95 222.561,363.723 222.477,363.496 222.392,363.269 222.307,363.043 222.221,362.817 
				222.134,362.591 222.047,362.366 221.959,362.141 221.869,361.916 221.78,361.692 221.69,361.468 221.599,361.245 
				221.508,361.022 221.415,360.799 221.323,360.577 221.229,360.355 221.193,360.268 221.136,360.133 221.042,359.912 
				220.946,359.69 220.851,359.469 220.755,359.249 220.658,359.029 220.56,358.81 220.462,358.59 220.363,358.371 220.263,358.152 
				220.163,357.934 220.063,357.716 219.961,357.498 219.859,357.281 219.757,357.065 219.653,356.848 219.549,356.632 
				219.445,356.416 219.339,356.201 219.234,355.987 219.128,355.772 219.02,355.558 218.913,355.344 218.804,355.13 
				218.696,354.918 218.587,354.705 218.476,354.493 218.365,354.281 218.254,354.07 218.142,353.859 218.029,353.648 
				217.916,353.437 217.802,353.228 217.688,353.018 217.572,352.809 217.457,352.6 217.34,352.392 217.224,352.184 
				217.106,351.976 216.988,351.77 216.869,351.563 216.75,351.356 216.63,351.15 216.509,350.945 216.388,350.739 216.266,350.534 
				216.145,350.331 216.021,350.127 215.897,349.923 215.774,349.72 215.649,349.517 215.523,349.315 215.398,349.113 
				215.271,348.912 215.145,348.711 215.017,348.51 214.889,348.31 214.761,348.111 214.631,347.911 214.501,347.712 
				214.37,347.514 214.24,347.315 214.108,347.118 213.975,346.921 213.843,346.724 213.71,346.528 213.575,346.332 
				213.441,346.136 213.306,345.941 213.171,345.747 213.034,345.552 212.897,345.359 212.76,345.165 212.623,344.973 
				212.484,344.78 212.345,344.589 212.205,344.397 212.065,344.206 211.924,344.015 211.784,343.825 211.642,343.635 
				211.499,343.446 211.356,343.257 211.213,343.069 211.069,342.88 210.924,342.693 210.78,342.507 210.634,342.32 
				210.488,342.134 210.341,341.948 210.194,341.763 210.046,341.577 209.898,341.394 209.749,341.21 209.6,341.026 209.45,340.844 
				209.3,340.661 209.149,340.479 209.139,340.467 208.997,340.298 208.846,340.116 208.694,339.935 208.541,339.755 
				208.388,339.575 208.234,339.396 208.08,339.216 207.925,339.038 207.77,338.86 207.614,338.683 207.458,338.505 
				207.301,338.329 207.144,338.153 206.986,337.977 206.828,337.802 206.669,337.628 206.509,337.453 206.35,337.279 
				206.189,337.107 206.027,336.934 205.866,336.762 205.704,336.59 205.542,336.419 205.379,336.248 205.216,336.078 
				205.052,335.908 204.888,335.739 204.722,335.57 204.557,335.402 204.391,335.233 204.225,335.066 204.058,334.9 
				203.891,334.734 203.722,334.568 203.554,334.403 203.385,334.238 203.216,334.074 203.047,333.91 202.876,333.747 
				202.705,333.584 202.534,333.422 202.363,333.261 202.19,333.1 202.017,332.939 201.844,332.778 201.671,332.619 201.496,332.46 
				201.322,332.301 201.147,332.143 200.971,331.986 200.795,331.829 200.619,331.673 200.441,331.517 200.264,331.361 
				200.087,331.207 199.909,331.052 199.729,330.899 199.55,330.745 199.37,330.593 199.19,330.44 199.01,330.289 198.828,330.138 
				198.647,329.987 198.466,329.837 198.283,329.687 198.1,329.538 197.917,329.39 197.733,329.242 197.549,329.095 
				197.364,328.948 197.18,328.802 196.993,328.657 196.808,328.511 196.622,328.367 196.435,328.223 196.248,328.079 
				196.06,327.936 195.872,327.794 195.683,327.652 195.494,327.511 195.304,327.37 195.115,327.23 194.924,327.09 194.734,326.951 
				194.543,326.814 194.351,326.676 194.16,326.538 193.967,326.401 193.774,326.265 193.581,326.13 193.387,325.995 
				193.194,325.86 192.999,325.726 192.804,325.593 192.609,325.46 192.414,325.328 192.217,325.196 192.02,325.066 
				191.824,324.935 191.626,324.805 191.429,324.677 191.419,324.669 191.231,324.547 191.033,324.418 190.834,324.29 
				190.635,324.163 190.436,324.036 190.236,323.91 190.036,323.784 189.835,323.659 189.634,323.535 189.433,323.411 
				189.231,323.288 189.029,323.165 188.827,323.042 188.624,322.921 188.42,322.8 188.217,322.68 188.013,322.56 187.808,322.44 
				187.604,322.322 187.398,322.204 187.192,322.087 186.987,321.97 186.78,321.854 186.573,321.738 186.367,321.624 
				186.159,321.509 185.951,321.396 185.742,321.283 185.534,321.171 185.325,321.058 185.115,320.947 184.906,320.836 
				184.696,320.727 184.485,320.618 184.274,320.509 184.064,320.401 183.852,320.293 183.64,320.186 183.428,320.081 
				183.215,319.974 183.003,319.87 182.789,319.766 182.575,319.661 182.361,319.559 182.147,319.456 181.932,319.354 
				181.717,319.253 181.501,319.152 181.286,319.052 181.069,318.954 180.854,318.855 180.637,318.756 180.419,318.659 
				180.202,318.563 179.984,318.466 179.765,318.371 179.548,318.277 179.329,318.183 179.109,318.089 178.89,317.996 
				178.67,317.904 178.45,317.813 178.229,317.722 178.008,317.632 177.788,317.542 177.566,317.453 177.344,317.365 
				177.122,317.277 176.899,317.191 176.677,317.105 176.453,317.019 176.23,316.934 176.006,316.849 175.782,316.766 
				175.558,316.683 175.334,316.601 175.109,316.519 174.883,316.438 174.658,316.358 174.432,316.279 174.206,316.2 
				173.979,316.122 173.752,316.044 173.525,315.967 173.298,315.891 173.07,315.816 172.842,315.741 172.613,315.667 
				172.385,315.593 172.156,315.521 171.927,315.448 171.697,315.377 171.467,315.306 171.237,315.236 171.007,315.167 
				170.85,315.121 170.776,315.099 170.545,315.03 170.314,314.962 170.083,314.895 169.852,314.828 169.62,314.762 
				169.388,314.697 169.155,314.632 168.922,314.569 168.689,314.506 168.456,314.443 168.223,314.382 167.989,314.32 
				167.755,314.26 167.52,314.201 167.285,314.142 167.05,314.084 166.815,314.026 166.579,313.97 166.343,313.914 166.107,313.858 
				165.871,313.804 165.635,313.75 165.398,313.697 165.161,313.645 164.923,313.593 164.686,313.542 164.447,313.491 
				164.209,313.442 163.971,313.393 163.732,313.346 163.493,313.298 163.254,313.251 163.015,313.206 162.774,313.16 
				162.534,313.116 162.294,313.072 162.054,313.03 161.813,312.987 161.573,312.945 161.332,312.905 161.089,312.865 
				160.848,312.826 160.644,312.793 160.606,312.787 160.364,312.749 160.122,312.71 159.88,312.674 159.636,312.637 
				159.393,312.602 159.15,312.567 158.907,312.533 158.663,312.5 158.419,312.467 158.174,312.436 157.93,312.404 157.686,312.374 
				157.441,312.345 157.196,312.316 156.95,312.288 156.704,312.26 156.459,312.234 156.213,312.209 155.967,312.183 
				155.719,312.159 155.473,312.136 155.226,312.113 154.979,312.091 154.731,312.07 154.484,312.05 154.236,312.03 
				153.988,312.011 153.74,311.993 153.491,311.976 153.243,311.96 152.994,311.944 152.744,311.929 152.495,311.915 
				152.246,311.902 151.996,311.889 151.746,311.877 151.496,311.866 151.246,311.856 151.086,311.85 150.996,311.846 
				150.744,311.837 150.493,311.828 150.243,311.82 149.992,311.813 149.739,311.806 149.488,311.8 149.236,311.796 
				148.984,311.792 148.732,311.789 148.479,311.787 148.227,311.785 147.973,311.784 147.721,311.784 147.468,311.785 
				147.215,311.787 146.963,311.789 146.711,311.793 146.459,311.797 146.207,311.801 145.956,311.807 145.704,311.814 
				145.453,311.821 145.202,311.829 144.952,311.838 144.7,311.848 144.45,311.858 144.201,311.869 143.951,311.882 143.7,311.894 
				143.451,311.908 143.202,311.922 142.953,311.937 142.704,311.952 142.455,311.97 142.207,311.987 141.959,312.005 
				141.78,312.018 141.71,312.023 141.462,312.043 141.215,312.063 140.968,312.083 140.72,312.105 140.473,312.127 140.226,312.15 
				139.98,312.174 139.733,312.199 139.487,312.224 139.241,312.25 138.996,312.277 138.75,312.304 138.505,312.332 138.26,312.362 
				138.015,312.391 137.771,312.422 137.527,312.454 137.283,312.485 137.038,312.519 136.795,312.552 136.551,312.587 
				136.308,312.621 136.066,312.658 135.822,312.694 135.58,312.732 135.338,312.769 135.096,312.809 134.854,312.848 
				134.613,312.889 134.371,312.929 134.13,312.971 133.89,313.013 133.649,313.057 133.409,313.1 133.17,313.146 132.93,313.192 
				132.691,313.237 132.451,313.284 132.212,313.331 132.211,313.332 131.973,313.38 131.735,313.428 131.496,313.477 
				131.258,313.527 131.021,313.578 130.783,313.629 130.546,313.681 130.308,313.734 130.072,313.787 129.835,313.841 
				129.599,313.897 129.363,313.952 129.128,314.008 128.892,314.065 128.657,314.123 128.422,314.181 128.188,314.241 
				127.954,314.301 127.72,314.361 127.486,314.423 127.252,314.484 127.018,314.547 126.786,314.611 126.553,314.675 
				126.321,314.74 126.089,314.806 125.857,314.871 125.625,314.938 125.394,315.006 125.163,315.074 124.933,315.143 
				124.702,315.213 124.472,315.283 124.242,315.355 124.013,315.426 123.784,315.499 123.555,315.572 123.326,315.646 
				123.098,315.72 122.87,315.796 122.642,315.872 122.415,315.948 122.188,316.025 121.961,316.103 121.735,316.182 
				121.508,316.261 121.282,316.341 121.058,316.421 120.833,316.503 120.608,316.584 120.383,316.667 120.159,316.75 
				119.935,316.834 119.711,316.919 119.488,317.004 119.265,317.091 119.042,317.177 118.819,317.264 118.597,317.352 
				118.376,317.44 118.155,317.529 117.934,317.619 117.713,317.711 117.492,317.802 117.272,317.893 117.052,317.985 
				116.833,318.078 116.615,318.173 116.396,318.267 116.177,318.362 115.959,318.458 115.741,318.555 115.524,318.652 
				115.307,318.749 115.091,318.848 114.874,318.947 114.658,319.046 114.442,319.146 114.227,319.248 114.013,319.349 
				113.798,319.451 113.583,319.554 113.369,319.657 113.216,319.732 113.156,319.761 112.942,319.865 112.729,319.97 
				112.516,320.076 112.304,320.181 112.092,320.287 111.88,320.395 111.669,320.503 111.458,320.612 111.247,320.72 
				111.037,320.83 110.827,320.94 110.618,321.051 110.409,321.163 110.2,321.275 109.991,321.388 109.783,321.501 109.576,321.615 
				109.368,321.73 109.161,321.845 108.955,321.961 108.749,322.078 108.543,322.194 108.338,322.312 108.133,322.43 
				107.928,322.549 107.724,322.668 107.52,322.789 107.316,322.909 107.113,323.031 106.91,323.153 106.708,323.275 
				106.506,323.398 106.305,323.522 106.103,323.646 105.903,323.771 105.702,323.896 105.502,324.022 105.303,324.149 
				105.104,324.276 104.905,324.404 104.706,324.533 104.508,324.661 104.311,324.791 104.114,324.921 103.917,325.052 
				103.721,325.183 103.525,325.315 103.329,325.448 103.134,325.58 102.939,325.714 102.745,325.849 102.551,325.984 
				102.358,326.118 102.165,326.254 101.972,326.391 101.78,326.528 101.588,326.666 101.397,326.803 101.206,326.942 
				101.016,327.082 100.825,327.222 100.636,327.362 100.447,327.503 100.258,327.644 100.069,327.786 99.882,327.929 
				99.694,328.073 99.507,328.216 99.321,328.361 99.134,328.506 98.949,328.651 98.763,328.796 98.579,328.943 98.394,329.09 
				98.21,329.238 98.027,329.386 97.844,329.535 97.661,329.684 97.479,329.834 97.297,329.984 97.116,330.135 96.935,330.287 
				96.755,330.438 96.575,330.591 96.395,330.744 96.216,330.897 96.038,331.052 96.027,331.061 95.86,331.206 95.682,331.36 
				95.504,331.516 95.327,331.671 95.15,331.828 94.974,331.985 94.799,332.142 94.624,332.3 94.449,332.458 94.275,332.617 
				94.101,332.776 93.928,332.936 93.755,333.098 93.583,333.259 93.411,333.42 93.239,333.582 93.068,333.744 92.898,333.907 
				92.728,334.071 92.559,334.236 92.39,334.4 92.221,334.565 92.053,334.731 91.886,334.897 91.719,335.063 91.552,335.23 
				91.386,335.398 91.221,335.566 91.056,335.735 90.891,335.904 90.727,336.073 90.563,336.244 90.4,336.415 90.238,336.585 
				90.076,336.757 89.914,336.93 89.753,337.102 89.593,337.275 89.433,337.448 89.273,337.623 89.114,337.797 88.955,337.972 
				88.797,338.148 88.64,338.324 88.483,338.5 88.327,338.677 88.171,338.855 88.015,339.032 87.86,339.211 87.706,339.39 
				87.552,339.569 87.399,339.75 87.246,339.93 87.094,340.11 86.942,340.292 86.791,340.473 86.64,340.655 86.49,340.838 
				86.34,341.021 86.191,341.204 86.042,341.389 85.894,341.573 85.747,341.758 85.6,341.943 85.453,342.13 85.308,342.316 
				85.162,342.503 85.017,342.69 84.873,342.877 84.73,343.066 84.586,343.254 84.444,343.443 84.302,343.632 84.16,343.823 
				84.019,344.013 83.879,344.204 83.739,344.395 83.6,344.587 83.461,344.779 83.323,344.972 83.185,345.164 83.048,345.358 
				82.912,345.552 82.776,345.746 82.64,345.941 82.506,346.136 82.371,346.332 82.342,346.375 82.237,346.528 82.104,346.724 
				81.971,346.92 81.838,347.118 81.707,347.315 81.575,347.513 81.445,347.711 81.314,347.91 81.185,348.11 81.056,348.309 
				80.928,348.509 80.8,348.71 80.673,348.91 80.546,349.112 80.42,349.313 80.294,349.515 80.17,349.718 80.045,349.921 
				79.922,350.124 79.799,350.328 79.676,350.532 79.554,350.737 79.433,350.942 79.312,351.147 79.192,351.353 79.072,351.56 
				78.953,351.766 78.835,351.973 78.717,352.181 78.6,352.389 78.484,352.596 78.368,352.805 78.252,353.014 78.138,353.224 
				78.024,353.433 77.91,353.644 77.797,353.854 77.685,354.065 77.573,354.276 77.462,354.488 77.352,354.701 77.242,354.913 
				77.133,355.126 77.024,355.339 76.917,355.553 76.809,355.767 76.703,355.982 76.597,356.196 76.491,356.411 76.386,356.627 
				76.282,356.843 76.179,357.06 76.076,357.276 75.974,357.493 75.872,357.711 75.771,357.929 75.671,358.147 75.571,358.366 
				75.472,358.585 75.373,358.803 75.276,359.023 75.178,359.243 75.082,359.464 74.986,359.684 74.891,359.906 74.796,360.127 
				74.703,360.349 74.609,360.57 74.517,360.793 74.425,361.016 74.334,361.239 74.243,361.463 74.153,361.687 74.064,361.911 
				73.975,362.136 73.887,362.361 73.8,362.586 73.713,362.812 73.627,363.038 73.542,363.265 73.457,363.491 73.373,363.718 
				73.29,363.945 73.207,364.172 73.125,364.401 73.044,364.629 72.964,364.858 72.884,365.087 72.804,365.316 72.726,365.547 
				72.648,365.776 72.571,366.007 72.494,366.237 72.418,366.469 72.343,366.699 72.269,366.931 72.195,367.164 72.122,367.396 
				72.05,367.629 71.978,367.861 71.907,368.095 71.837,368.328 71.767,368.562 71.698,368.796 71.63,369.031 71.563,369.265 
				71.496,369.5 71.43,369.736 71.364,369.971 71.3,370.207 71.236,370.444 71.173,370.681 71.11,370.918 71.048,371.155 
				70.987,371.393 70.927,371.631 70.867,371.869 70.808,372.107 70.75,372.346 70.692,372.585 70.635,372.824 70.579,373.064 
				70.524,373.304 70.469,373.544 70.415,373.785 70.362,374.025 70.31,374.266 70.258,374.508 70.207,374.75 70.157,374.992 
				70.107,375.234 70.058,375.476 70.01,375.719 69.963,375.962 69.916,376.206 69.87,376.449 69.825,376.693 69.781,376.937 
				69.737,377.181 69.694,377.427 69.652,377.672 69.611,377.917 69.57,378.162 69.53,378.409 69.491,378.654 69.453,378.901 
				69.415,379.147 69.378,379.394 69.342,379.641 69.307,379.889 69.272,380.136 69.239,380.384 69.206,380.633 69.173,380.881 
				69.142,381.129 69.111,381.378 69.081,381.628 69.052,381.877 69.023,382.126 69.014,382.21 68.995,382.376 68.968,382.627 
				68.941,382.877 68.915,383.127 68.89,383.378 68.866,383.63 68.843,383.881 68.82,384.132 68.798,384.384 68.777,384.636 
				68.757,384.888 68.737,385.141 68.718,385.394 68.7,385.647 68.683,385.9 68.666,386.154 68.651,386.408 68.636,386.661 
				68.622,386.916 68.609,387.17 68.596,387.424 68.585,387.68 68.574,387.935 68.564,388.19 68.555,388.446 68.546,388.701 
				68.538,388.957 68.532,389.214 68.526,389.47 68.52,389.726 68.516,389.984 68.513,390.17 68.511,390.357 68.509,390.542 
				68.508,390.728 68.507,390.914 68.507,391.1 68.506,391.286 68.507,391.471 68.507,391.658 68.509,391.843 68.51,392.028 
				68.512,392.214 68.515,392.398 68.517,392.584 68.521,392.769 68.524,392.953 68.529,393.139 68.533,393.323 68.538,393.508 
				68.544,393.692 68.549,393.878 68.556,394.062 68.562,394.245 68.569,394.43 68.577,394.614 68.585,394.798 68.593,394.982 
				68.602,395.165 68.611,395.35 68.621,395.533 68.631,395.717 68.641,395.9 68.652,396.083 68.663,396.267 68.675,396.449 
				68.687,396.633 68.7,396.815 68.713,396.998 68.726,397.181 68.74,397.363 68.754,397.545 68.768,397.728 68.784,397.91 
				68.799,398.093 68.815,398.275 68.831,398.456 68.848,398.639 68.865,398.82 68.882,399.001 68.9,399.183 68.918,399.364 
				68.937,399.546 68.956,399.727 68.975,399.908 68.995,400.089 69.016,400.27 69.036,400.45 69.057,400.631 69.079,400.811 
				69.101,400.991 69.123,401.172 69.146,401.352 69.169,401.533 69.193,401.712 69.217,401.892 69.241,402.072 69.266,402.251 
				69.291,402.43 69.316,402.61 69.343,402.789 69.369,402.968 69.396,403.147 69.423,403.326 69.45,403.504 69.478,403.684 
				69.507,403.862 69.535,404.04 69.565,404.219 69.594,404.396 69.624,404.574 69.654,404.753 69.685,404.93 69.716,405.107 
				69.748,405.284 69.78,405.462 69.812,405.639 69.845,405.816 69.878,405.994 69.911,406.17 69.945,406.347 69.979,406.524 
				70.014,406.7 70.049,406.876 70.084,407.053 70.12,407.229 70.156,407.404 70.193,407.581 70.23,407.756 70.267,407.931 
				70.305,408.106 70.343,408.282 70.382,408.457 70.421,408.632 70.46,408.808 70.5,408.982 70.54,409.156 70.58,409.33 
				70.621,409.505 70.662,409.679 70.704,409.853 70.746,410.027 70.788,410.201 70.831,410.374 70.874,410.548 70.918,410.722 
				70.962,410.895 71.006,411.067 71.051,411.24 71.096,411.414 71.141,411.586 71.187,411.758 71.233,411.93 71.28,412.103 
				71.319,412.247 71.327,412.275 71.374,412.446 71.421,412.618 71.47,412.79 71.518,412.962 71.464,412.792 71.411,412.621 
				71.358,412.451 71.305,412.281 71.297,412.254 71.253,412.111 71.201,411.94 71.149,411.769 71.098,411.598 71.047,411.427 
				70.997,411.255 70.947,411.083 70.897,410.912 70.848,410.74 70.799,410.568 70.751,410.395 70.702,410.223 70.655,410.051 
				70.607,409.879 70.56,409.705 70.514,409.532 70.467,409.359 70.421,409.185 70.376,409.012 70.331,408.838 70.286,408.665 
				70.241,408.49 70.197,408.316 70.154,408.142 70.111,407.968 70.068,407.793 70.025,407.618 69.983,407.443 69.941,407.268 
				69.9,407.093 69.859,406.918 69.818,406.742 69.778,406.566 69.738,406.39 69.699,406.214 69.66,406.038 69.621,405.862 
				69.583,405.685 69.545,405.509 69.508,405.331 69.47,405.155 69.434,404.978 69.397,404.8 69.362,404.623 69.326,404.446 
				69.291,404.267 69.256,404.09 69.222,403.912 69.188,403.733 69.154,403.555 69.121,403.377 69.088,403.198 69.056,403.02 
				69.024,402.841 68.992,402.661 68.961,402.482 68.93,402.303 68.9,402.123 68.87,401.944 68.84,401.765 68.811,401.584 
				68.782,401.404 68.754,401.224 68.725,401.044 68.698,400.864 68.671,400.682 68.644,400.502 68.617,400.321 68.591,400.14 
				68.566,399.959 68.54,399.778 68.516,399.596 68.491,399.415 68.467,399.233 68.444,399.051 68.42,398.869 68.398,398.687 
				68.375,398.505 68.353,398.323 68.332,398.14 68.311,397.957 68.29,397.774 68.27,397.591 68.25,397.409 68.23,397.225 
				68.211,397.042 68.192,396.858 68.174,396.675 68.156,396.492 68.139,396.307 68.122,396.124 68.105,395.94 68.089,395.755 
				68.073,395.571 68.058,395.386 68.043,395.202 68.028,395.017 68.014,394.832 68,394.648 67.987,394.462 67.974,394.277 
				67.962,394.091 67.95,393.906 67.938,393.72 67.927,393.535 67.916,393.349 67.906,393.163 67.896,392.977 67.886,392.79 
				67.877,392.604 67.868,392.418 67.86,392.231 67.852,392.045 67.845,391.858 67.838,391.671 67.831,391.484 67.825,391.297 
				67.82,391.109 67.814,390.922 67.809,390.734 67.805,390.547 67.801,390.36 67.798,390.171 67.795,389.984 67.791,389.724 
				67.788,389.465 67.786,389.207 67.785,388.948 67.785,388.69 67.785,388.431 67.787,388.173 67.789,387.915 67.792,387.657 
				67.796,387.399 67.8,387.142 67.806,386.884 67.812,386.628 67.819,386.371 67.827,386.114 67.835,385.857 67.845,385.6 
				67.855,385.345 67.866,385.089 67.878,384.832 67.891,384.577 67.904,384.322 67.919,384.066 67.934,383.811 67.95,383.557 
				67.966,383.302 67.984,383.047 68.002,382.793 68.021,382.539 68.041,382.285 68.055,382.116 68.062,382.032 68.084,381.779 
				68.106,381.525 68.13,381.272 68.154,381.02 68.179,380.766 68.205,380.514 68.232,380.263 68.259,380.01 68.287,379.759 
				68.316,379.507 68.346,379.255 68.376,379.005 68.408,378.754 68.44,378.504 68.472,378.253 68.506,378.003 68.54,377.753 
				68.576,377.504 68.611,377.253 68.648,377.004 68.686,376.756 68.724,376.507 68.763,376.258 68.802,376.01 68.843,375.762 
				68.884,375.514 68.926,375.266 68.969,375.019 69.013,374.772 69.057,374.526 69.102,374.279 69.148,374.032 69.194,373.786 
				69.242,373.541 69.29,373.295 69.338,373.049 69.388,372.804 69.438,372.559 69.489,372.315 69.541,372.071 69.593,371.827 
				69.647,371.582 69.701,371.339 69.756,371.096 69.811,370.853 69.867,370.611 69.924,370.367 69.982,370.125 70.04,369.883 
				70.1,369.642 70.159,369.401 70.22,369.16 70.281,368.918 70.343,368.677 70.406,368.437 70.47,368.197 70.534,367.958 
				70.599,367.718 70.665,367.479 70.731,367.24 70.798,367.001 70.866,366.763 70.935,366.525 71.004,366.287 71.074,366.05 
				71.145,365.813 71.216,365.576 71.288,365.339 71.361,365.103 71.435,364.867 71.509,364.632 71.584,364.395 71.66,364.16 
				71.736,363.925 71.813,363.691 71.891,363.457 71.97,363.223 72.049,362.989 72.129,362.756 72.209,362.523 72.291,362.291 
				72.373,362.058 72.455,361.826 72.539,361.595 72.623,361.363 72.708,361.132 72.793,360.901 72.879,360.671 72.966,360.441 
				73.054,360.211 73.142,359.982 73.231,359.752 73.32,359.523 73.41,359.295 73.501,359.067 73.593,358.839 73.685,358.611 
				73.778,358.384 73.872,358.157 73.966,357.931 74.061,357.704 74.157,357.478 74.253,357.253 74.35,357.028 74.448,356.803 
				74.546,356.578 74.645,356.354 74.745,356.13 74.845,355.908 74.946,355.684 75.048,355.462 75.15,355.239 75.253,355.017 
				75.357,354.795 75.461,354.574 75.566,354.353 75.672,354.132 75.778,353.911 75.885,353.692 75.992,353.473 76.101,353.253 
				76.21,353.034 76.319,352.816 76.429,352.597 76.54,352.38 76.651,352.163 76.763,351.946 76.876,351.729 76.99,351.513 
				77.104,351.297 77.218,351.082 77.333,350.867 77.449,350.652 77.566,350.437 77.683,350.223 77.801,350.009 77.919,349.797 
				78.038,349.584 78.158,349.371 78.278,349.159 78.399,348.948 78.521,348.736 78.643,348.525 78.766,348.314 78.889,348.105 
				79.014,347.895 79.138,347.685 79.264,347.476 79.389,347.268 79.516,347.06 79.643,346.852 79.771,346.645 79.899,346.438 
				80.028,346.231 80.158,346.026 80.288,345.82 80.419,345.614 80.55,345.409 80.653,345.25 80.682,345.205 80.815,345.001 
				80.949,344.798 81.083,344.595 81.218,344.392 81.354,344.19 81.49,343.989 81.626,343.787 81.764,343.587 81.902,343.386 
				82.04,343.186 82.179,342.987 82.319,342.788 82.459,342.589 82.6,342.391 82.741,342.193 82.883,341.996 83.026,341.798 
				83.169,341.603 83.313,341.406 83.457,341.211 83.602,341.015 83.747,340.82 83.893,340.626 84.04,340.432 84.187,340.239 
				84.335,340.046 84.483,339.854 84.632,339.661 84.781,339.47 84.931,339.278 85.082,339.088 85.233,338.897 85.385,338.708 
				85.537,338.518 85.69,338.33 85.843,338.142 85.997,337.953 86.152,337.766 86.307,337.579 86.462,337.393 86.618,337.206 
				86.775,337.021 86.932,336.835 87.09,336.651 87.249,336.467 87.408,336.283 87.567,336.1 87.727,335.916 87.888,335.735 
				88.049,335.553 88.21,335.371 88.373,335.191 88.535,335.011 88.699,334.83 88.862,334.651 89.027,334.471 89.192,334.293 
				89.357,334.116 89.523,333.938 89.689,333.761 89.856,333.585 90.024,333.409 90.192,333.233 90.361,333.058 90.53,332.884 
				90.699,332.71 90.87,332.536 91.04,332.363 91.211,332.191 91.383,332.018 91.555,331.847 91.728,331.676 91.901,331.506 
				92.075,331.336 92.25,331.166 92.424,330.997 92.6,330.829 92.776,330.661 92.952,330.494 93.129,330.326 93.306,330.16 
				93.484,329.994 93.662,329.829 93.841,329.664 94.021,329.5 94.2,329.336 94.37,329.182 94.381,329.173 94.562,329.01 
				94.744,328.849 94.926,328.688 95.109,328.527 95.292,328.367 95.475,328.207 95.66,328.048 95.844,327.89 96.03,327.732 
				96.215,327.573 96.401,327.416 96.588,327.26 96.775,327.104 96.962,326.949 97.15,326.794 97.339,326.64 97.528,326.486 
				97.717,326.333 97.907,326.181 98.098,326.029 98.289,325.877 98.48,325.726 98.672,325.576 98.864,325.426 99.057,325.277 
				99.25,325.129 99.444,324.981 99.638,324.833 99.832,324.686 100.028,324.54 100.223,324.394 100.419,324.248 100.616,324.104 
				100.812,323.959 101.01,323.816 101.208,323.673 101.406,323.531 101.605,323.389 101.804,323.248 102.003,323.107 
				102.203,322.967 102.404,322.827 102.605,322.689 102.806,322.55 103.008,322.412 103.21,322.275 103.413,322.138 
				103.616,322.003 103.82,321.867 104.024,321.732 104.228,321.598 104.433,321.465 104.639,321.332 104.844,321.199 
				105.051,321.067 105.257,320.936 105.464,320.806 105.672,320.675 105.88,320.546 106.088,320.417 106.297,320.289 
				106.506,320.162 106.716,320.035 106.926,319.908 107.136,319.783 107.347,319.657 107.558,319.532 107.77,319.409 
				107.982,319.285 108.194,319.163 108.407,319.041 108.621,318.919 108.834,318.799 109.049,318.678 109.263,318.559 
				109.478,318.44 109.693,318.322 109.909,318.204 110.125,318.086 110.342,317.97 110.559,317.854 110.776,317.739 
				110.994,317.625 111.212,317.511 111.431,317.397 111.65,317.285 111.869,317.174 111.931,317.142 112.089,317.062 
				112.309,316.952 112.53,316.842 112.751,316.734 112.973,316.625 113.195,316.518 113.418,316.412 113.64,316.305 113.864,316.2 
				114.086,316.095 114.31,315.991 114.534,315.887 114.759,315.784 114.984,315.682 115.209,315.581 115.435,315.479 
				115.661,315.379 115.888,315.28 116.115,315.181 116.342,315.082 116.569,314.985 116.797,314.889 117.025,314.793 
				117.254,314.696 117.483,314.602 117.712,314.508 117.942,314.414 118.172,314.321 118.402,314.229 118.633,314.138 
				118.864,314.047 119.096,313.957 119.327,313.867 119.559,313.778 119.792,313.69 120.025,313.603 120.258,313.516 
				120.491,313.431 120.725,313.345 120.959,313.26 121.194,313.176 121.428,313.093 121.663,313.011 121.9,312.929 
				122.136,312.848 122.372,312.767 122.608,312.688 122.845,312.609 123.082,312.53 123.319,312.453 123.557,312.376 
				123.795,312.3 124.033,312.224 124.273,312.15 124.512,312.076 124.751,312.002 124.991,311.929 125.231,311.858 
				125.471,311.786 125.712,311.716 125.954,311.646 126.195,311.578 126.436,311.509 126.678,311.442 126.92,311.375 
				127.162,311.309 127.405,311.243 127.649,311.178 127.892,311.114 128.136,311.052 128.38,310.989 128.624,310.927 
				128.869,310.866 129.114,310.806 129.359,310.747 129.605,310.688 129.85,310.63 130.097,310.572 130.343,310.516 130.59,310.46 
				130.837,310.405 131.085,310.35 131.332,310.298 131.58,310.244 131.828,310.193 132.076,310.143 132.325,310.093 
				132.574,310.043 132.823,309.996 133.074,309.948 133.323,309.901 133.573,309.855 133.823,309.809 134.075,309.765 
				134.326,309.721 134.577,309.679 134.828,309.636 135.08,309.595 135.332,309.554 135.584,309.514 135.837,309.475 
				136.09,309.436 136.342,309.399 136.596,309.363 136.85,309.326 137.103,309.291 137.357,309.256 137.612,309.223 
				137.866,309.19 138.121,309.158 138.376,309.126 138.631,309.096 138.887,309.066 139.143,309.037 139.399,309.009 
				139.656,308.982 139.912,308.955 140.168,308.929 140.426,308.905 140.683,308.88 140.94,308.857 141.198,308.834 
				141.455,308.812 141.528,308.806 141.713,308.792 141.972,308.772 142.23,308.754 142.49,308.735 142.749,308.718 
				143.007,308.702 143.268,308.687 143.527,308.672 143.786,308.657 144.047,308.644 144.307,308.632 144.568,308.621 
				144.829,308.61 145.089,308.601 145.351,308.591 145.612,308.583 145.874,308.575 146.135,308.569 146.398,308.563 
				146.66,308.558 146.922,308.554 147.185,308.551 147.447,308.549 147.711,308.547 147.973,308.546 			"/>
			<polyline style="fill-rule:evenodd;clip-rule:evenodd;fill:#253D62;" points="143.882,409.335 143.847,356.975 120.29,356.995 
				141.73,358.801 			"/>
			<polyline style="fill-rule:evenodd;clip-rule:evenodd;fill:#253D62;" points="143.869,318.679 143.847,350.19 120.29,350.171 
				141.73,348.364 			"/>
			<polyline style="fill-rule:evenodd;clip-rule:evenodd;fill:#253D62;" points="150.809,409.335 150.844,356.975 174.401,356.995 
				152.962,358.801 			"/>
			<polyline style="fill-rule:evenodd;clip-rule:evenodd;fill:#253D62;" points="150.809,318.935 150.844,350.19 174.401,350.171 
				152.962,348.364 			"/>
		</g>
		
			<text transform="matrix(1 0 0 1 108.0307 432.8332)" style="fill:#253D62; font-family:'GreatVibes-Regular'; font-size:29.4846px;">Church</text>
	</g>
</g>
</svg>
